# This file uses centimeters as units for non-parametric coordinates.

mtllib pared2.mtl
g default
v -1.984752 0.000000 0.147968
v 2.032743 0.000000 0.147968
v -1.949558 4.007187 0.147968
v 2.032743 4.039651 0.147968
v -1.984752 4.017495 -0.225674
v 2.032743 4.039651 -0.225674
v -1.984752 0.000000 -0.225674
v 2.032743 0.000000 -0.225674
v -2.007983 0.669584 0.172867
v 2.032743 0.669584 0.147968
v 2.032743 0.669584 -0.225674
v -2.007983 0.669584 -0.225674
v -2.018503 1.673510 0.179406
v 2.065238 1.495085 0.147968
v 2.056969 1.503973 -0.225674
v -2.018503 1.673510 -0.225674
v -2.015732 2.056829 0.162883
v 2.059890 2.098075 0.147968
v 2.056490 2.088115 -0.225674
v -2.015732 2.008748 -0.225674
v -2.027541 2.694956 0.159429
v 2.032743 2.736031 0.147968
v 2.032743 2.736031 -0.225674
v -2.019170 2.694956 -0.225674
v -1.984752 3.178353 0.147968
v 2.032743 3.347913 0.147968
v 2.032743 3.347913 -0.225674
v -1.984752 3.102383 -0.225674
v -0.980378 0.000000 0.147968
v -0.980378 0.000000 -0.225674
v -0.980378 0.669584 -0.225674
v -0.980378 1.673510 -0.225674
v -0.980378 2.008748 -0.225674
v -0.980378 2.678330 -0.225674
v -0.980378 3.102383 -0.225674
v -0.980378 4.017495 -0.225674
v -0.980378 4.017495 0.147968
v -0.980378 3.102383 0.147968
v -0.980378 2.678330 0.121041
v -1.042300 2.228433 0.073772
v -0.980378 1.673510 0.086379
v -0.980378 0.470770 0.147968
v 0.023995 0.000000 0.147968
v 0.023995 0.000000 -0.225674
v 0.023995 0.669584 -0.225674
v 0.023995 1.471682 -0.225674
v 0.023995 2.098428 -0.225029
v 0.023995 2.678330 -0.221478
v 0.023995 3.347913 -0.225481
v 0.023995 4.017495 -0.225674
v 0.023995 4.017495 0.076027
v 0.023995 3.347913 0.189726
v 0.023995 2.678330 0.207969
v 0.023995 1.826487 0.060265
v 0.023995 1.512572 0.147968
v 0.023995 0.394657 0.147968
v 1.028369 0.000000 0.147968
v 1.028369 0.000000 -0.225674
v 1.028369 0.669584 -0.225674
v 1.028369 1.339166 -0.225674
v 1.028369 2.008748 -0.225674
v 1.028369 2.678330 -0.225674
v 1.028369 3.347913 -0.225674
v 1.028369 4.053114 -0.225674
v 1.064322 4.043547 0.147968
v 0.968533 3.347913 0.115036
v 1.140535 2.678330 0.147968
v 1.028369 2.008748 0.147968
v 0.951019 1.191508 0.147968
v 1.028369 0.669584 0.147968
v -2.022110 3.121698 0.159429
v -2.013739 3.121698 -0.225674
v -1.984752 2.595606 0.147968
v -1.984752 2.645639 -0.225674
v -1.984752 2.076847 -0.225674
v -1.984752 2.076847 0.147968
v -1.984752 1.597456 0.147968
v -1.984752 1.597456 -0.225674
v -1.984752 0.617633 -0.225674
v -1.984752 0.617633 0.147968
v -0.939684 4.063527 0.147968
v -0.957022 4.019920 -0.225674
v -0.919976 3.188664 0.189851
v -1.087544 1.582168 0.207430
v -1.057834 1.604752 0.228197
v 0.023995 1.389663 0.262198
v -1.411476 0.725343 0.190431
v -1.092113 2.246249 0.075507
v -1.095081 2.640272 0.128220
v -1.072206 0.652337 0.147968
v -0.111703 0.744635 0.220672
v 0.023995 0.242730 0.147968
v 0.130292 0.412337 0.184309
v -0.200119 3.293126 0.149179
v -0.166904 2.949730 0.185724
v -0.040634 3.099222 0.168785
v 0.974478 3.065210 0.191202
v 1.112646 4.017495 0.147968
v 1.113349 4.017495 -0.225674
v 1.071038 3.421366 0.206116
v 1.757630 4.017495 0.147968
v 1.784060 3.479356 0.147968
v 1.769855 4.017495 -0.225674
v 1.806845 4.045109 -0.225674
v 1.791880 4.047875 0.147968
v 1.311937 3.347913 0.147968
v 1.259738 2.804467 0.182936
v 1.188113 2.115228 0.213882
v 2.057450 2.841731 0.147968
v 2.057450 2.775887 -0.225674
v 2.032743 2.137674 0.147968
v 2.032743 2.124371 -0.225674
v 0.727820 3.347913 0.147968
v 0.178728 2.400936 0.116662
v 0.253019 2.107195 0.149601
v 0.092130 2.087991 0.149849
v -0.173412 1.996211 0.141626
v 0.938639 0.693260 0.147968
v 0.916316 1.159162 0.177335
v 1.028369 0.964222 0.182366
v 1.192637 1.206317 0.194375
v 2.032743 1.399454 0.147968
v 2.032743 1.424622 -0.225674
v 1.963239 0.390411 0.226470
v 1.960286 0.098778 0.196574
v 2.064440 0.636437 0.166203
v 2.064440 0.615584 -0.225674
v -1.083540 3.218346 0.234381
v 0.094746 1.404301 0.205505
v 0.091723 1.512572 0.115882
v 1.143716 1.563433 0.169522
v 1.971975 1.543035 0.169427
v 1.988484 2.016680 0.169522
v 0.262923 2.046235 0.179932
v 0.957617 1.386334 0.192488
v 0.152933 1.561950 0.160402
v 0.034860 3.072879 0.184240
v 0.704370 3.292648 0.194800
v 0.969966 2.700935 0.186997
v 0.917089 3.292648 0.161868
v -1.003659 0.674476 0.222060
v -1.119868 2.214803 0.141085
v -1.148663 1.644146 0.129026
v -0.948571 2.222635 0.122052
v -0.899215 2.124143 0.145605
v -0.899320 2.663076 0.144951
v -0.014699 2.634552 0.214760
v -1.062951 0.493915 0.175846
v -1.012404 0.000000 0.210216
v 0.086467 0.000000 0.180897
v 0.944722 0.637234 0.181478
v 0.998740 0.000000 0.191201
vt 0.081591 0.550933
vt 0.484654 0.547573
vt 0.101545 0.940429
vt 0.486811 0.944826
vt 0.949950 0.960296
vt 0.561536 0.958555
vt 0.079044 0.512416
vt 0.562670 0.567625
vt 0.520980 0.546767
vt 0.523549 0.942983
vt 0.045007 0.552897
vt 0.067015 0.946209
vt 0.084669 0.617975
vt 0.485723 0.611911
vt 0.562559 0.632469
vt 0.522358 0.614851
vt 0.046781 0.618533
vt 0.953729 0.632914
vt 0.088115 0.715347
vt 0.486228 0.693478
vt 0.560074 0.713215
vt 0.521690 0.695136
vt 0.051611 0.718878
vt 0.954715 0.730103
vt 0.090689 0.750823
vt 0.485940 0.751993
vt 0.559991 0.769724
vt 0.521966 0.753245
vt 0.054577 0.753330
vt 0.954452 0.762535
vt 0.092336 0.814597
vt 0.484297 0.815914
vt 0.562095 0.832395
vt 0.520340 0.815271
vt 0.056761 0.816476
vt 0.954963 0.828821
vt 0.094643 0.860610
vt 0.485616 0.876183
vt 0.561847 0.891592
vt 0.521827 0.875637
vt 0.056698 0.861396
vt 0.951861 0.871769
vt 0.180056 0.542431
vt 0.183407 0.507090
vt 0.854236 0.633002
vt 0.854215 0.730316
vt 0.854221 0.762834
vt 0.854268 0.827884
vt 0.854349 0.869152
vt 0.191326 0.978140
vt 0.195114 0.941248
vt 0.192105 0.852498
vt 0.190933 0.810976
vt 0.182847 0.766781
vt 0.189857 0.712894
vt 0.184373 0.589083
vt 0.285241 0.541604
vt 0.283768 0.504655
vt 0.757047 0.632912
vt 0.756989 0.710636
vt 0.756933 0.771372
vt 0.756817 0.827542
vt 0.756516 0.892334
vt 0.755967 0.957193
vt 0.289603 0.945008
vt 0.290547 0.876175
vt 0.287520 0.809275
vt 0.286815 0.725332
vt 0.286771 0.693423
vt 0.285347 0.581455
vt 0.383851 0.543406
vt 0.389133 0.506483
vt 0.659822 0.632698
vt 0.659733 0.697542
vt 0.659616 0.762365
vt 0.659440 0.827166
vt 0.659155 0.891960
vt 0.386400 0.978986
vt 0.390237 0.943569
vt 0.382063 0.876544
vt 0.397707 0.810046
vt 0.386723 0.743837
vt 0.378315 0.662735
vt 0.385931 0.610689
vt 0.092670 0.854898
vt 0.056833 0.858184
vt 0.954728 0.869984
vt 0.094521 0.804701
vt 0.057163 0.811007
vt 0.951609 0.824081
vt 0.056717 0.759928
vt 0.951456 0.769129
vt 0.092754 0.753344
vt 0.088889 0.707614
vt 0.051865 0.710453
vt 0.951446 0.722752
vt 0.047346 0.612919
vt 0.951480 0.627886
vt 0.084459 0.612337
vt 0.199418 0.944152
vt 0.850608 0.958130
vt 0.199034 0.861551
vt 0.179340 0.697392
vt 0.182956 0.698434
vt 0.284760 0.677837
vt 0.142569 0.617635
vt 0.177785 0.769287
vt 0.179608 0.807514
vt 0.175134 0.607666
vt 0.271523 0.615690
vt 0.284960 0.565804
vt 0.296640 0.581739
vt 0.268960 0.868553
vt 0.270875 0.835863
vt 0.284090 0.850681
vt 0.380414 0.847909
vt 0.395304 0.942373
vt 0.650576 0.956774
vt 0.394289 0.885394
vt 0.459518 0.942420
vt 0.461932 0.889437
vt 0.587009 0.956519
vt 0.461231 0.980231
vt 0.463339 0.944362
vt 0.416088 0.876602
vt 0.410091 0.822542
vt 0.402948 0.755829
vt 0.485819 0.826483
vt 0.559687 0.836241
vt 0.520707 0.819661
vt 0.484279 0.756119
vt 0.562283 0.773238
vt 0.521528 0.757453
vt 0.358110 0.876823
vt 0.304517 0.782555
vt 0.310900 0.753535
vt 0.295161 0.751677
vt 0.267606 0.743810
vt 0.376648 0.613378
vt 0.374433 0.658656
vt 0.385816 0.639722
vt 0.402421 0.662828
vt 0.484094 0.684064
vt 0.562434 0.705544
vt 0.521197 0.687083
vt 0.475676 0.585078
vt 0.476514 0.557491
vt 0.486648 0.607298
vt 0.559498 0.627234
vt 0.523604 0.608591
vt 0.180782 0.865686
vt 0.293270 0.680154
vt 0.294140 0.694023
vt 0.397319 0.699722
vt 0.477135 0.698265
vt 0.478838 0.743884
vt 0.376478 0.682637
vt 0.312522 0.746930
vt 0.301033 0.699796
vt 0.291476 0.848421
vt 0.355430 0.869938
vt 0.380639 0.813037
vt 0.375924 0.870158
vt 0.184592 0.609857
vt 0.174248 0.762690
vt 0.173343 0.707390
vt 0.193120 0.766194
vt 0.198126 0.756403
vt 0.198915 0.808677
vt 0.283641 0.805072
vt 0.175396 0.592073
vt 0.175592 0.546488
vt 0.291786 0.542835
vt 0.377280 0.607098
vt 0.379746 0.546025
vt 0.583414 0.959177
vt 0.482841 0.982385
vt 0.456843 0.979689
vt 0.395410 0.978190
vt 0.193544 0.978751
vt 0.288528 0.974655
vt 0.658781 0.960256
vt 0.852856 0.957932
vt 0.096108 0.976242
vt 0.659920 0.567849
vt 0.487605 0.511811
vt 0.757100 0.568047
vt 0.854248 0.568125
vt 0.951473 0.568064
vn -0.042503 0.619944 0.783494
vn -0.057290 -0.017590 0.998203
vn -0.043936 -0.036158 0.998380
vn -0.017988 0.536447 0.843743
vn -0.000614 0.489872 -0.871794
vn 0.016668 0.388602 -0.921255
vn -0.000612 -0.000840 -1.000000
vn -0.007827 -0.654170 0.756307
vn 0.000000 -0.492694 -0.870203
vn 0.293493 -0.474714 -0.829764
vn 0.533094 -0.839614 0.104207
vn 0.697917 0.033735 0.715383
vn 0.388790 0.007804 -0.921293
vn 0.911119 0.304386 -0.277869
vn 0.906372 0.302800 0.294622
vn -0.310171 0.018559 -0.950500
vn -0.463930 0.073032 0.882857
vn -0.373640 0.446319 0.813137
vn -0.315994 0.346624 -0.883176
vn -0.017036 -0.035909 0.999210
vn 0.009164 0.029611 0.999520
vn 0.766685 0.158244 0.622216
vn 0.546839 0.125466 0.827783
vn 0.364914 -0.001057 -0.931041
vn 0.364260 0.015022 -0.931176
vn 0.000000 0.000000 -1.000000
vn -0.337025 -0.012052 -0.941418
vn -0.410266 -0.025107 0.911620
vn -0.495267 -0.001375 0.868740
vn -0.358587 0.000000 -0.933496
vn 0.003519 -0.003214 0.999989
vn -0.009350 0.064370 0.997882
vn 0.683441 0.049419 0.728331
vn 0.845360 -0.013909 0.534015
vn 0.381443 -0.014045 -0.924286
vn 0.328036 -0.011952 -0.944590
vn -0.000058 0.000109 -1.000000
vn -0.506621 0.032736 0.861547
vn -0.334746 -0.003601 -0.942301
vn -0.012866 0.015788 0.999793
vn -0.018271 -0.017917 0.999673
vn 0.018711 -0.032767 0.999288
vn 0.022505 0.047134 0.998635
vn 0.355093 0.015579 -0.934701
vn 0.948157 -0.024022 0.316893
vn -0.000601 0.000793 -1.000000
vn -0.417695 -0.029179 -0.908118
vn -0.293519 0.014509 0.955843
vn -0.266810 0.049176 0.962494
vn -0.411391 0.029453 -0.910983
vn -0.008469 0.030035 0.999513
vn -0.019818 -0.046479 0.998723
vn 0.417379 -0.036626 0.907994
vn 0.436809 0.002422 0.899551
vn 0.312222 0.012851 -0.949922
vn 0.364984 -0.013304 -0.930919
vn -0.001133 -0.000088 -0.999999
vn -0.302819 0.016240 -0.952910
vn -0.472692 0.123849 0.872481
vn -0.403798 -0.077465 0.911563
vn -0.306789 -0.022181 -0.951519
vn -0.011237 -0.047613 0.998803
vn 0.513198 0.029163 0.857775
vn 0.300191 -0.002723 -0.953875
vn -0.385363 -0.025257 -0.922419
vn -0.342990 -0.053544 0.937812
vn -0.330725 0.005891 0.943709
vn -0.362962 0.031280 -0.931279
vn -0.000987 -0.600896 0.799326
vn 0.000000 -0.497986 -0.867185
vn 0.040308 -0.704372 0.708686
vn 0.000000 0.000000 -1.000000
vn 0.000074 0.000139 -1.000000
vn 0.000750 0.000989 -0.999999
vn 0.001295 -0.000102 -0.999999
vn 0.000656 -0.000904 -0.999999
vn -0.010967 0.380255 -0.924817
vn -0.080179 0.477236 0.875109
vn 0.009974 -0.058064 0.998263
vn 0.009140 -0.010378 0.999904
vn -0.022049 -0.016770 0.999616
vn 0.040743 0.055292 0.997639
vn 0.053226 -0.059965 0.996780
vn 0.087231 0.124785 0.988342
vn 0.077652 0.063327 0.994967
vn 0.096435 0.295273 0.950534
vn 0.007113 0.039362 0.999200
vn -0.122857 0.032461 0.991893
vn -0.036920 0.113612 0.992839
vn -0.014467 -0.008951 0.999855
vn 0.042194 -0.111474 0.992871
vn -0.017852 -0.016331 0.999707
vn 0.000000 -0.478323 -0.878184
vn -0.020458 -0.712277 0.701600
vn 0.000000 0.000000 -1.000000
vn -0.000013 0.000224 -1.000000
vn -0.000000 0.001828 -0.999998
vn -0.000010 -0.000183 -1.000000
vn -0.000076 -0.001434 -0.999999
vn -0.002369 0.371194 -0.928552
vn 0.014390 0.496897 0.867691
vn 0.001343 0.022120 0.999754
vn -0.008745 -0.152682 0.988237
vn 0.007621 0.084713 0.996376
vn -0.053867 0.019857 0.998351
vn -0.072178 0.019610 0.997199
vn 0.209798 0.043435 0.976779
vn 0.023684 -0.066640 0.997496
vn -0.006726 -0.125194 0.992110
vn -0.023831 -0.004273 0.999707
vn -0.048241 -0.043991 0.997867
vn 0.075647 0.339858 0.937429
vn 0.041696 0.105457 0.993549
vn -0.037030 0.001925 0.999312
vn 0.011535 -0.093833 0.995521
vn 0.037650 -0.656575 0.753320
vn -0.001915 0.407209 -0.913333
vn 0.006039 0.529327 0.848396
vn -0.003291 0.101684 0.994811
vn 0.042350 -0.039552 0.998320
vn -0.043685 -0.067848 0.996739
vn -0.030667 -0.023940 0.999243
vn -0.003699 -0.116673 0.993164
vn -0.012223 -0.039533 0.999144
vn -0.140869 0.024492 0.989725
vn -0.097223 0.053846 0.993805
vn 0.027807 -0.094859 0.995102
vn 0.090749 0.045407 0.994838
vn 0.029224 0.153723 0.987682
vn 0.000545 -0.024743 0.999694
vn 0.036603 0.078907 0.996210
vn 0.000000 0.000000 1.000000
vn -0.290387 -0.504025 -0.813409
vn -0.359671 -0.567159 0.740923
vn -0.016766 -0.053209 0.998443
vn -0.062240 -0.088776 0.994105
vn 0.006737 -0.090416 0.995881
vn -0.053771 0.621828 0.781306
vn 0.009359 0.481628 0.876326
vn -0.014664 0.334970 -0.942115
vn 0.028145 0.028088 0.999209
vn -0.063113 0.806456 -0.587917
vn -0.003267 0.013708 0.999901
vn -0.090968 -0.025112 0.995537
vn -0.085099 -0.106256 0.990691
vn 0.042649 0.022183 0.998844
vn -0.026591 -0.066472 0.997434
vn 0.013145 -0.084000 0.996379
vn -0.153083 -0.099216 0.983220
vn 0.014571 0.110245 0.993798
vn 0.212983 0.345355 0.913985
vn -0.022330 -0.698089 0.715663
vn -0.037916 0.090764 0.995150
s 1
g muro_1 muro_1
usemtl lambert2SG
f 65/79/1 66/80/2 100/119/3 98/117/4
f 64/78/5 65/79/1 98/117/4 99/179/6
f 63/77/7 64/182/5 99/118/6
f 57/71/8 58/72/9 8/186/10 2/2/11
f 26/38/12 27/40/13 6/10/14 4/4/15
f 28/41/16 25/37/17 3/3/18 5/12/19
f 70/84/20 124/146/21 126/148/22 10/14/23
f 126/148/22 127/150/24 11/16/25 10/14/23
f 127/149/24 59/73/26 11/15/25
f 79/97/27 80/99/28 9/13/29 12/17/30
f 69/83/31 121/142/32 122/143/33 14/20/34
f 122/143/33 123/145/35 15/22/36 14/20/34
f 123/144/35 60/74/37 15/21/36
f 12/17/30 9/13/29 77/94/38 78/95/39
f 68/82/40 131/154/41 132/155/42 133/156/43
f 14/20/34 15/22/36 19/28/44 18/26/45
f 60/74/37 61/75/46 19/27/44 15/21/36
f 16/23/47 13/19/48 17/25/49 20/29/50
f 107/126/51 108/127/52 111/131/53 22/32/54
f 111/131/53 112/133/55 23/34/56 22/32/54
f 61/75/46 62/76/57 23/33/56 112/132/55
f 75/91/58 76/93/59 73/88/60 74/89/61
f 106/125/62 107/126/51 109/128/63 26/38/12
f 109/128/63 110/130/64 27/40/13 26/38/12
f 62/76/57 63/77/7 27/39/13 110/129/64
f 24/35/65 21/31/66 71/85/67 72/86/68
f 149/172/69 30/44/70 29/43/71
f 12/18/30 31/45/72 79/98/27
f 78/96/39 32/46/73 31/45/72 12/18/30
f 20/30/50 33/47/74 32/46/73 16/24/47
f 74/90/61 34/48/75 33/47/74 75/92/58
f 72/87/68 35/49/76 34/48/75 24/36/65
f 5/5/19 36/183/77 35/49/76 28/42/16
f 3/3/18 37/51/78 36/50/77 5/184/19
f 25/37/17 38/52/79 128/151/80
f 21/31/66 39/53/81 38/52/79 71/85/67
f 76/93/59 88/107/82 89/108/83 73/88/60
f 142/165/84 143/166/85 41/55/86 40/54/87
f 84/103/88 85/104/89 41/55/86
f 80/99/28 148/171/90 42/56/91 87/106/92 9/13/29
f 29/43/71 30/44/70 44/58/93 43/57/94
f 30/188/70 31/45/72 45/59/95 44/187/93
f 31/45/72 32/46/73 46/60/96 45/59/95
f 32/46/73 33/47/74 47/61/97 46/60/96
f 33/47/74 34/48/75 48/62/98 47/61/97
f 34/48/75 35/49/76 49/63/99 48/62/98
f 35/49/76 36/183/77 82/101/100
f 36/50/77 37/51/78 81/100/101 82/180/100
f 83/102/102 38/52/79 94/113/103 52/66/104
f 94/113/103 95/114/105 96/115/106 52/66/104
f 53/67/107 147/170/108 117/138/109 54/68/110
f 145/168/111 41/55/86 55/69/112 54/68/110
f 41/55/86 85/104/89 86/105/113 55/69/112
f 42/56/91 92/111/114 56/70/115
f 152/175/116 58/72/9 57/71/8
f 44/187/93 45/59/95 59/73/26 58/185/9
f 45/59/95 46/60/96 60/74/37 59/73/26
f 46/60/96 47/61/97 61/75/46 60/74/37
f 47/61/97 48/62/98 62/76/57 61/75/46
f 48/62/98 49/63/99 63/77/7 62/76/57
f 49/63/99 50/64/117 64/182/5 63/77/7
f 50/181/117 51/65/118 65/79/1 64/78/5
f 51/65/118 52/66/104 113/134/119 65/79/1
f 97/116/120 137/160/121 114/135/122 139/162/123
f 114/135/122 116/137/124 67/81/125
f 134/158/126 135/157/127 68/82/40
f 55/69/112 86/105/113 129/152/128 130/153/129
f 118/139/130 151/174/131 70/84/20
f 71/85/67 38/52/79 25/37/17
f 72/86/68 71/85/67 25/37/17 28/41/16
f 28/42/16 35/49/132 72/87/68
f 73/88/60 89/108/83 39/53/81 21/31/66
f 74/89/61 73/88/60 21/31/66 24/35/65
f 24/36/65 34/48/75 74/90/61
f 75/92/58 33/47/74 20/30/50
f 20/29/50 17/25/49 76/93/59 75/91/58
f 17/25/49 142/165/84 40/54/87 88/107/82 76/93/59
f 77/94/38 84/103/88 143/166/85 13/19/48
f 78/95/39 77/94/38 13/19/48 16/23/47
f 16/24/47 32/46/73 78/96/39
f 79/98/27 31/45/72 30/188/70 7/189/133
f 7/11/133 1/1/134 80/99/28 79/97/27
f 148/171/90 149/172/69 29/43/71 42/56/91
f 81/100/101 83/102/102 52/66/104 51/65/118
f 82/180/100 81/100/101 51/65/118 50/181/117
f 35/49/76 82/101/100 50/64/117 49/63/99
f 37/51/78 38/52/79 83/102/102 81/100/101
f 84/103/88 90/109/135 141/164/136 85/104/89
f 86/105/113 85/104/89 141/164/136 91/110/137
f 56/70/115 129/152/128 86/105/113
f 9/13/29 87/106/92 84/103/88 77/94/38
f 89/108/83 88/107/82 40/54/87 39/53/81
f 86/105/113 91/110/137 56/70/115
f 42/56/91 141/164/136 90/109/135
f 84/103/88 87/106/92 42/56/91 90/109/135
f 42/56/91 29/43/71 43/57/94 92/111/114
f 70/84/20 151/174/131 152/175/116 57/71/8
f 95/114/105 39/53/81 53/67/107
f 38/52/79 39/53/81 95/114/105 94/113/103
f 96/115/106 95/114/105 53/67/107
f 66/80/2 97/116/120 67/81/125
f 105/124/138 26/38/12 4/4/15
f 99/179/6 98/117/4 101/120/139 103/178/140
f 63/77/7 99/118/6 103/122/140 27/39/13
f 102/121/141 106/125/62 26/38/12
f 104/123/142 105/124/138 4/4/15 6/177/14
f 27/39/13 104/176/142 6/6/14
f 27/39/13 103/122/140 104/176/142
f 103/178/140 101/120/139 105/124/138 104/123/142
f 101/120/139 102/121/141 26/38/12 105/124/138
f 98/117/4 100/119/3 102/121/141 101/120/139
f 66/80/2 67/81/125 107/126/51 106/125/62
f 67/81/125 68/82/40 108/127/52 107/126/51
f 109/128/63 107/126/51 22/32/54
f 22/32/54 23/34/56 110/130/64 109/128/63
f 62/76/57 110/129/64 23/33/56
f 111/131/53 108/127/52 68/82/40 18/26/45
f 18/26/45 19/28/44 112/133/55 111/131/53
f 61/75/46 112/132/55 19/27/44
f 65/79/1 113/134/119 66/80/2
f 116/137/124 54/68/110 115/136/143
f 54/68/110 55/69/112 130/153/129
f 53/67/107 54/68/110 116/137/124 114/135/122
f 67/81/125 116/137/124 115/136/143 68/82/40
f 39/53/81 146/169/144 147/170/108 53/67/107
f 54/68/110 117/138/109 144/167/145 40/54/87 145/168/111
f 114/135/122 96/115/106 53/67/107
f 69/83/31 119/140/146 120/141/147
f 120/141/147 119/140/146 118/139/130 70/84/20
f 10/14/23 120/141/147 70/84/20
f 120/141/147 10/14/23 121/142/32 69/83/31
f 10/14/23 11/16/25 123/145/35 122/143/33
f 59/73/26 60/74/37 123/144/35 11/15/25
f 125/147/148 57/71/8 2/2/11
f 126/148/22 124/146/21 125/147/148 2/2/11
f 2/2/11 8/9/10 127/150/24 126/148/22
f 58/185/9 59/73/26 127/149/24 8/8/10
f 70/84/20 57/71/8 125/147/148 124/146/21
f 25/37/17 128/151/80 37/51/78 3/3/18
f 128/151/80 38/52/79 37/51/78
f 118/139/130 119/140/146 129/152/128 56/70/115
f 130/153/129 129/152/128 119/140/146 69/83/31
f 54/68/110 136/159/149 135/157/127 134/158/126
f 68/82/40 69/83/31 131/154/41
f 69/83/31 14/20/34 132/155/42 131/154/41
f 14/20/34 18/26/45 133/156/43 132/155/42
f 18/26/45 68/82/40 133/156/43
f 69/83/31 68/82/40 135/157/127
f 68/82/40 115/136/143 134/158/126
f 54/68/110 130/153/129 136/159/149
f 130/153/129 69/83/31 135/157/127 136/159/149
f 115/136/143 54/68/110 134/158/126
f 52/66/104 96/115/106 137/160/121
f 113/134/119 52/66/104 138/161/150
f 67/81/125 97/116/120 139/162/123
f 114/135/122 67/81/125 139/162/123
f 97/116/120 66/80/2 140/163/151
f 66/80/2 113/134/119 138/161/150 140/163/151
f 96/115/106 114/135/122 137/160/121
f 13/19/48 143/166/85 142/165/84 17/25/49
f 143/166/85 84/103/88 41/55/86
f 39/53/81 40/54/87 144/167/145 146/169/144
f 40/54/87 41/55/86 145/168/111
f 147/170/108 146/169/144 144/167/145 117/138/109
f 1/1/134 149/172/69 148/171/90 80/99/28
f 7/7/133 30/44/70 149/172/69 1/1/134
f 43/57/94 150/173/152 93/112/153 92/111/114
f 43/57/94 44/58/93 150/173/152
f 152/175/116 151/174/131 93/112/153 150/173/152
f 150/173/152 44/58/93 58/72/9 152/175/116
f 122/143/33 121/142/32 10/14/23
f 56/70/115 91/110/137 141/164/136 42/56/91
f 56/70/115 92/111/114 93/112/153
f 56/70/115 93/112/153 151/174/131 118/139/130
f 137/160/121 138/161/150 52/66/104
f 97/116/120 140/163/151 138/161/150
f 97/116/120 138/161/150 137/160/121
f 102/121/141 100/119/3 66/80/2 106/125/62
