# This file uses centimeters as units for non-parametric coordinates.

mtllib piso 2.mtl
g default
v 8.196701 1.798788 6.382812
v 10.871158 1.624301 7.168419
v 7.928747 1.590776 3.584212
v 10.871158 1.624301 1.354643
v 8.944816 1.756477 2.153890
v 10.058527 1.585916 0.176875
v 10.123681 1.751253 4.672095
vt 0.375000 0.250000
vt 0.625000 0.250000
vt 0.375000 0.500000
vt 0.625000 0.500000
vt 0.500000 0.500000
vt 0.000000 0.000000
vt 1.000000 0.000000
vt 0.000000 1.000000
vt 0.562500 0.375000
vn -0.062523 0.997822 -0.021044
vn -0.062523 0.997822 -0.021044
vn -0.062523 0.997822 -0.021044
vn -0.062523 0.997822 -0.021044
vn 0.167443 0.985882 0.000000
vn 0.167443 0.985882 0.000000
vn 0.167443 0.985882 0.000000
vn 0.042710 0.997164 -0.061967
vn 0.042710 0.997164 -0.061967
vn 0.042710 0.997164 -0.061967
vn 0.055039 0.997896 0.034268
vn 0.055039 0.997896 0.034268
vn 0.055039 0.997896 0.034268
vn 0.058059 0.997997 -0.025109
vn 0.058059 0.997997 -0.025109
vn 0.058059 0.997997 -0.025109
s off
g musgo_2 piso_2
usemtl initialShadingGroup
f 1/1/1 7/9/2 5/5/3 3/3/4
f 4/4/5 7/9/6 2/2/7
f 5/6/8 4/7/9 6/8/10
f 1/1/11 2/2/12 7/9/13
f 5/5/14 7/9/15 4/4/16
g default
v -10.871158 1.624301 -2.876831
v -6.241020 1.850711 -4.325623
v -10.871158 1.624301 -10.871158
v -4.918727 1.624301 -10.871157
v -10.871158 1.624301 -6.873995
v -5.090037 2.135901 -7.153870
v -8.511952 2.136626 -2.712317
v -9.102966 2.203981 -8.283024
v -10.871158 1.624301 0.425896
v -10.111002 1.917991 -0.189822
v -4.814638 2.039563 -9.743504
v -3.535025 1.677905 -7.316854
v -3.537888 1.637892 -9.320529
v -2.566596 2.098839 -8.174450
vt 0.375000 0.250000
vt 0.625000 0.250000
vt 0.375000 0.500000
vt 0.625000 0.500000
vt 0.375000 0.375000
vt 0.625000 0.375000
vt 0.500000 0.250000
vt 0.500000 0.375000
vt 0.000000 0.000000
vt 1.000000 0.000000
vt 1.000000 1.000000
vt 0.000000 1.000000
vt 0.625000 0.437500
vt 0.000000 0.000000
vt 1.000000 0.000000
vt 1.000000 1.000000
vt 0.000000 1.000000
vt 0.500000 1.000000
vn 0.000000 0.938394 -0.345567
vn 0.000000 0.938394 -0.345567
vn 0.000000 0.938394 -0.345567
vn -0.249443 0.968135 0.022224
vn -0.249443 0.968134 0.022224
vn -0.249443 0.968135 0.022224
vn -0.249443 0.968134 0.022224
vn 0.124099 0.992269 -0.001169
vn 0.124099 0.992269 -0.001169
vn 0.124099 0.992269 -0.001169
vn -0.010188 0.995308 0.096217
vn -0.010188 0.995308 0.096217
vn -0.010188 0.995308 0.096217
vn -0.311524 0.950238 -0.000000
vn -0.311524 0.950238 -0.000000
vn -0.311524 0.950238 -0.000000
vn -0.254588 0.966465 -0.033612
vn -0.254588 0.966465 -0.033612
vn -0.254588 0.966465 -0.033612
vn -0.254588 0.966465 -0.033612
vn -0.030149 0.979576 -0.198804
vn -0.030149 0.979575 -0.198804
vn -0.030149 0.979576 -0.198804
vn 0.414889 0.666305 -0.619600
vn 0.414889 0.666305 -0.619600
vn 0.414889 0.666305 -0.619600
vn 0.061256 0.991422 0.115456
vn 0.061256 0.991422 0.115456
vn 0.061256 0.991422 0.115456
vn 0.061256 0.991422 0.115456
vn 0.026611 0.999056 -0.034336
vn 0.026611 0.999056 -0.034336
vn 0.026611 0.999056 -0.034336
s off
g piso_2 musgo_1
usemtl initialShadingGroup
f 10/12/17 18/22/18 11/13/19
f 8/10/20 14/16/21 15/17/22 12/14/23
f 15/17/24 14/16/25 9/11/26
f 15/17/27 9/11/28 13/15/29
f 12/14/30 15/17/31 10/12/32
f 14/18/33 8/19/34 16/20/35 17/21/36
f 10/12/37 15/17/38 18/22/39
f 18/23/40 21/27/41 20/26/42
f 18/23/43 13/24/44 19/25/45 21/27/46
f 18/22/47 15/17/48 13/15/49
g default
v -10.871158 0.000000 10.871158
v 10.871158 0.000000 10.871158
v -10.871158 1.624301 10.871158
v 10.871158 1.624301 10.871158
v -10.871158 1.624301 -10.871158
v 10.871158 1.624301 -10.871158
v -10.871158 0.000000 -10.871158
v 10.871158 0.000000 -10.871158
v 0.000000 0.000000 10.871158
v 0.000000 1.624301 10.871158
v 0.000000 1.624301 -10.871158
v 0.000000 0.000000 -10.871158
v -10.871158 1.624301 0.000000
v -10.871158 0.000000 0.000000
v 0.000000 0.000000 0.000000
v 10.871158 0.000000 0.000000
v 10.871158 1.624301 0.000000
v -3.530949 1.531785 -0.426863
v -9.602629 2.009309 8.984205
v -0.805315 2.028211 6.243226
v 3.240891 1.382283 -2.435257
v 0.432276 1.737536 -7.275001
v -1.887187 1.777577 -8.027223
v -9.561676 2.029890 -9.052536
v -5.664655 2.075336 3.925551
v 5.551514 1.996059 9.721724
v 8.307812 1.624301 1.028009
v 3.351118 1.545209 8.294701
v 0.205750 2.009143 1.944340
v -10.396358 1.973473 -0.905030
v -3.962028 1.910772 -1.101832
v -7.934995 1.949488 -2.470315
v -5.867947 1.931388 -6.016686
v -5.556782 1.735594 -1.932737
v -6.313248 1.624301 0.718005
v -5.975549 1.768051 -4.454261
v -6.649880 1.690547 -3.574420
v 0.917706 1.624301 -0.213432
v -0.714941 1.468195 -2.267541
v -2.601667 1.645716 4.702936
v -1.598605 1.502863 1.283608
v 5.455482 2.016449 -8.700701
v -3.371602 1.478531 7.489683
v 0.381889 1.403761 4.354453
v 5.677715 1.412247 3.275035
v 8.869161 1.974175 4.621105
v 3.046179 1.799148 4.650054
v 3.870926 1.454939 -0.510643
v 7.350382 1.216900 6.133303
v -5.696011 1.822277 9.751871
v -5.187186 1.630909 5.061801
v -9.605190 2.100757 4.082712
v 8.158440 1.820728 -4.358190
v 2.956117 2.077635 -5.261154
v 3.991330 1.538691 -4.852594
v 5.725874 2.112002 -6.096736
vt 0.375000 0.000000
vt 0.625000 0.000000
vt 0.375000 0.250000
vt 0.625000 0.250000
vt 0.375000 0.500000
vt 0.625000 0.500000
vt 0.375000 0.750000
vt 0.625000 0.750000
vt 0.375000 1.000000
vt 0.625000 1.000000
vt 0.875000 0.000000
vt 0.875000 0.250000
vt 0.125000 0.000000
vt 0.125000 0.250000
vt 0.500000 0.000000
vt 0.500000 1.000000
vt 0.500000 0.250000
vt 0.500000 0.500000
vt 0.500000 0.750000
vt 0.250000 0.250000
vt 0.375000 0.375000
vt 0.250000 0.000000
vt 0.375000 0.875000
vt 0.500000 0.875000
vt 0.625000 0.875000
vt 0.750000 0.000000
vt 0.625000 0.375000
vt 0.750000 0.250000
vt 0.500000 0.375000
vt 0.445483 0.317369
vt 0.526944 0.319339
vt 0.519679 0.389097
vt 0.536350 0.458650
vt 0.464166 0.402425
vt 0.429247 0.409939
vt 0.479655 0.353713
vt 0.594248 0.278347
vt 0.561704 0.375000
vt 0.562232 0.297846
vt 0.513472 0.347170
vt 0.442342 0.373582
vt 0.430463 0.379972
vt 0.485757 0.393653
vt 0.458950 0.381260
vt 0.457007 0.402509
vt 0.471292 0.386966
vt 0.452619 0.375000
vt 0.461263 0.397533
vt 0.460106 0.389397
vt 0.531223 0.374085
vt 0.509840 0.382048
vt 0.500000 0.312500
vt 0.500000 0.343750
vt 0.580675 0.479325
vt 0.500000 0.287412
vt 0.520804 0.332023
vt 0.561953 0.338711
vt 0.601980 0.302649
vt 0.541015 0.310769
vt 0.549259 0.374626
vt 0.598441 0.291524
vt 0.467662 0.289961
vt 0.475791 0.314662
vt 0.462229 0.335180
vt 0.602797 0.427257
vt 0.546525 0.430052
vt 0.572599 0.428757
vt 0.561432 0.429312
vn 0.000000 0.000000 1.000000
vn 0.000000 0.000000 1.000000
vn 0.000000 0.000000 1.000000
vn 0.000000 0.000000 1.000000
vn -0.191633 0.977664 0.086308
vn -0.140326 0.989548 0.033214
vn -0.132781 0.991041 -0.014415
vn -0.085481 0.992139 -0.091401
vn 0.000000 0.000000 -1.000000
vn 0.000000 0.000000 -1.000000
vn 0.000000 0.000000 -1.000000
vn 0.000000 0.000000 -1.000000
vn 0.000000 -1.000000 0.000000
vn 0.000000 -1.000000 0.000000
vn 0.000000 -1.000000 0.000000
vn 0.000000 -1.000000 0.000000
vn 1.000000 0.000000 0.000000
vn 1.000000 0.000000 0.000000
vn 1.000000 0.000000 0.000000
vn 1.000000 0.000000 0.000000
vn -1.000000 0.000000 0.000000
vn -1.000000 0.000000 0.000000
vn -1.000000 0.000000 0.000000
vn -1.000000 0.000000 0.000000
vn 0.000000 0.000000 1.000000
vn 0.000000 0.000000 1.000000
vn 0.000000 0.000000 1.000000
vn 0.000000 0.000000 1.000000
vn 0.003273 0.998591 -0.052962
vn -0.057783 0.998204 -0.015797
vn 0.025467 0.993578 0.110245
vn -0.005890 0.999896 0.013199
vn 0.000000 0.000000 -1.000000
vn 0.000000 0.000000 -1.000000
vn 0.000000 0.000000 -1.000000
vn 0.000000 0.000000 -1.000000
vn 0.000000 -1.000000 0.000000
vn 0.000000 -1.000000 0.000000
vn 0.000000 -1.000000 0.000000
vn 0.000000 -1.000000 0.000000
vn -1.000000 0.000000 0.000000
vn -1.000000 0.000000 0.000000
vn -1.000000 0.000000 0.000000
vn -1.000000 0.000000 0.000000
vn 0.000000 -1.000000 0.000000
vn 0.000000 -1.000000 0.000000
vn 0.000000 -1.000000 0.000000
vn 0.000000 -1.000000 0.000000
vn 0.000000 -1.000000 0.000000
vn 0.000000 -1.000000 0.000000
vn 0.000000 -1.000000 0.000000
vn 0.000000 -1.000000 0.000000
vn 1.000000 0.000000 0.000000
vn 1.000000 0.000000 0.000000
vn 1.000000 0.000000 0.000000
vn 1.000000 0.000000 0.000000
vn -0.051889 0.998493 0.017882
vn 0.026853 0.999558 0.012778
vn -0.017172 0.999810 0.009261
vn 0.099192 0.994233 -0.040753
vn 0.203120 0.977129 0.062942
vn 0.308280 0.946309 0.097276
vn 0.044262 0.994084 -0.099186
vn 0.034885 0.998286 0.046998
vn -0.016508 0.991007 -0.132787
vn -0.001066 0.990125 -0.140181
vn -0.037906 0.999149 -0.016240
vn -0.086220 0.994201 -0.064276
vn -0.022928 0.999734 0.002567
vn 0.000000 0.984067 -0.177797
vn 0.030420 0.994142 -0.103714
vn 0.057309 0.997661 -0.037257
vn -0.383419 0.923467 -0.014088
vn -0.223851 0.974609 -0.005265
vn -0.074251 0.995191 -0.063892
vn -0.071570 0.992895 -0.095068
vn 0.023763 0.999696 0.006562
vn 0.026745 0.999641 0.001631
vn 0.016122 0.989903 0.140824
vn 0.022433 0.989937 0.139718
vn -0.008281 0.989390 0.145047
vn -0.008281 0.989390 0.145047
vn 0.023737 0.998306 0.053120
vn 0.016296 0.999722 0.017031
vn 0.042689 0.999063 -0.007184
vn 0.006865 0.999151 -0.040633
vn -0.063872 0.997942 0.005712
vn -0.013950 0.999818 -0.013029
vn -0.006806 0.977160 0.212395
vn 0.041907 0.994313 -0.097900
vn -0.033130 0.999095 -0.026670
vn 0.072221 0.997389 0.000000
vn 0.029823 0.983663 -0.177534
vn 0.029823 0.983663 -0.177534
vn 0.038234 0.993699 -0.105354
vn 0.031747 0.992103 -0.121344
vn 0.083593 0.995708 0.039714
vn 0.038234 0.993700 -0.105354
vn 0.156262 0.984910 0.074396
vn 0.004991 0.992698 0.120526
vn 0.068452 0.993365 0.092417
vn 0.068452 0.993365 0.092417
vn 0.068452 0.993365 0.092417
vn 0.111875 0.988513 -0.101616
vn -0.122028 0.991977 0.033034
vn -0.041493 0.998746 0.028010
vn -0.006089 0.998772 -0.049168
vn -0.021357 0.999028 -0.038567
vn -0.047148 0.998855 -0.008133
vn 0.066336 0.997787 -0.004661
vn 0.141348 0.975655 0.167685
vn -0.345948 0.903701 0.252278
vn 0.029621 0.989926 0.138450
vn 0.029621 0.989926 0.138450
vn -0.100860 0.994897 0.002766
vn -0.113269 0.991568 0.062948
vn -0.155465 0.981391 0.112705
vn 0.031753 0.996651 -0.075361
vn 0.172153 0.985070 0.000000
vn 0.000000 0.951473 0.307732
vn 0.042610 0.998280 -0.040266
vn 0.065125 0.997452 -0.029130
vn 0.071638 0.997390 0.009026
vn -0.012001 0.998904 -0.045253
vn -0.012001 0.998904 -0.045253
vn -0.012001 0.998904 -0.045253
vn -0.021883 0.998509 -0.050012
vn 0.090342 0.992320 0.084492
vn 0.078662 0.996728 -0.018566
vn 0.078662 0.996728 -0.018566
vn 0.078662 0.996728 -0.018566
vn 0.173227 0.939735 0.294771
vn -0.052521 0.995033 0.084564
vn 0.034171 0.981080 0.190562
vn 0.155529 0.986443 -0.052348
vn 0.021067 0.996765 0.077560
vn 0.072221 0.997389 0.000000
s off
g piso_2 piso_2
usemtl initialShadingGroup
f 22/28/50 30/42/51 31/44/52 24/30/53
s 1
f 24/30/54 40/57/55 73/91/56 34/48/57
s off
f 26/32/58 32/45/59 33/46/60 28/34/61
f 35/50/62 36/51/63 30/43/64 22/36/65
f 23/29/66 37/53/67 38/55/68 25/31/69
f 34/47/70 35/49/71 22/28/72 24/30/73
f 31/44/74 30/42/75 23/29/76 25/31/77
s 2
f 38/54/78 48/65/79 66/84/80 67/85/81
s off
f 33/46/82 32/45/83 27/33/84 29/35/85
f 30/43/86 36/51/87 37/52/88 23/37/89
f 28/40/90 35/49/91 34/47/92 26/41/93
f 28/34/94 33/46/95 36/51/96 35/50/97
f 37/52/98 36/51/99 33/46/100 29/35/101
f 38/55/102 37/53/103 29/38/104 27/39/105
s 3
f 43/60/106 60/78/107 42/59/108
s 4
f 44/61/109 52/70/110 39/56/111 32/45/112
s 1
f 24/30/54 71/89/113 40/57/55
s 3
f 50/67/114 59/77/115 39/56/116 62/80/117
f 59/77/115 60/78/118 39/56/116
s 6
f 32/45/119 63/81/120 27/33/121
s 4
f 34/48/122 51/69/123 45/62/124 26/32/125
f 26/32/125 45/62/124 44/61/109 32/45/112
f 51/68/123 53/71/126 54/72/127 45/62/124
s 8
f 55/73/128 56/74/129 39/56/130 52/70/131
s 2
f 31/44/132 47/64/133 49/66/134
f 25/31/135 67/85/81 70/88/136
f 65/83/137 66/84/80 48/65/79 50/67/138
f 31/44/132 49/66/134 68/86/139 41/58/140
s 6
f 27/33/121 63/81/120 74/92/141
s 3
f 50/67/114 48/65/142 69/87/143 59/77/115
s 1
f 39/56/144 56/74/145 46/63/146 62/80/147
s 4
f 53/71/126 58/76/148 57/75/149 54/72/127
s off
f 51/68/150 55/73/151 53/71/152
s 1
f 34/48/57 46/63/146 56/74/145
s 4
f 52/70/110 54/72/127 57/75/149
f 55/73/153 58/76/148 53/71/126
f 52/70/110 57/75/149 55/73/154
f 44/61/109 54/72/127 52/70/110
f 45/62/124 54/72/127 44/61/109
f 55/73/154 57/75/149 58/76/148
s 3
f 38/54/155 42/59/108 69/87/156 48/65/157
f 32/45/158 39/56/116 60/78/118 43/60/106
s 1
f 71/89/113 72/90/159 40/57/55
f 72/90/160 73/91/56 40/57/55
s 2
f 50/67/138 62/80/161 65/83/137
s 8
f 34/48/162 56/74/129 55/73/128 51/68/163
s 3
f 32/45/158 43/60/106 63/81/164
f 42/59/108 75/93/165 63/81/164 43/60/106
s 2
f 31/44/132 41/58/140 64/82/166
f 49/66/134 66/84/80 68/86/139
f 67/85/81 66/84/80 70/88/136
f 68/86/139 66/84/80 65/83/137 41/58/140
s 3
f 69/87/156 42/59/108 60/78/107 59/77/167
s 2
f 70/88/136 49/66/134 47/64/133
f 25/31/135 70/88/136 47/64/133
f 38/54/78 67/85/81 25/31/168
f 70/88/136 66/84/80 49/66/134
f 25/31/135 47/64/133 31/44/169
s 1
f 24/30/54 31/44/170 71/89/113
f 64/82/171 71/89/113 31/44/170
f 61/79/172 72/90/159 71/89/113 64/82/171
s off
f 62/80/173 72/90/174 61/79/175
s 1
f 34/48/57 73/91/56 46/63/146
s 2
f 64/82/176 41/58/140 65/83/137
f 64/82/176 65/83/137 61/79/177
s off
f 65/83/178 62/80/179 61/79/180
s 1
f 46/63/146 73/91/56 72/90/160 62/80/181
s 3
f 38/54/155 74/92/182 42/59/108
f 42/59/108 74/92/182 76/94/183
f 63/81/184 77/95/185 74/92/182
s 6
f 27/33/121 74/92/141 38/54/186
s 3
f 75/93/165 76/94/183 77/95/185
f 74/92/182 77/95/185 76/94/183
f 42/59/108 76/94/183 75/93/165
f 63/81/164 75/93/165 77/95/185
