# This file uses centimeters as units for non-parametric coordinates.

mtllib piso2.mtl
g default
v 1.500449 0.165238 1.161804
v 1.988285 0.133411 1.305104
v 1.451572 0.127296 0.651323
v 1.988285 0.133411 0.244637
v 1.636909 0.157521 0.390424
v 1.840057 0.126409 0.029805
v 1.851941 0.156568 0.849760
v -1.957663 0.133411 -0.527208
v -1.113099 0.174709 -0.791476
v -1.957663 0.133411 -1.985420
v -0.871905 0.133411 -1.985420
v -1.957663 0.133411 -1.256314
v -0.903153 0.226730 -1.307365
v -1.527330 0.226862 -0.497200
v -1.635134 0.239148 -1.513329
v -1.957663 0.133411 0.075228
v -1.819005 0.186982 -0.037082
v -0.852918 0.209157 -1.779729
v -0.619510 0.143189 -1.337094
v -0.620032 0.135890 -1.702576
v -0.442862 0.219969 -1.493525
v -1.977639 -0.162871 1.980505
v 1.988285 -0.162871 1.980505
v -1.977639 0.133411 1.980505
v 1.988285 0.133411 1.980505
v -1.977639 0.133411 -1.985420
v 1.988285 0.133411 -1.985420
v -1.977639 -0.162871 -1.985420
v 1.988285 -0.162871 -1.985420
v 0.005323 -0.162871 1.980505
v 0.005323 0.133411 1.980505
v 0.005323 0.133411 -1.985420
v 0.005323 -0.162871 -1.985420
v -1.977639 0.133411 -0.002458
v -1.977639 -0.162871 -0.002458
v 0.005323 -0.162871 -0.002458
v 1.988285 -0.162871 -0.002458
v 1.988285 0.133411 -0.002458
v -0.638743 0.116535 -0.080320
v -1.746252 0.203639 1.636314
v -0.141570 0.207086 1.136343
v 0.596480 0.089265 -0.446663
v 0.084172 0.154066 -1.329460
v -0.338911 0.161369 -1.466670
v -1.738782 0.207393 -1.653693
v -1.027943 0.215682 0.713586
v 1.017951 0.201222 1.770841
v 1.520716 0.133411 0.185057
v 0.616586 0.118984 1.510544
v 0.042853 0.203608 0.352201
v -1.891033 0.197102 -0.167540
v -0.717374 0.185665 -0.203438
v -1.442066 0.192727 -0.453057
v -1.065025 0.189425 -1.099936
v -1.008265 0.153711 -0.355000
v -1.146250 0.133411 0.128511
v -1.084652 0.159632 -0.814941
v -1.207653 0.145495 -0.654453
v 0.172718 0.133411 -0.041389
v -0.125087 0.104936 -0.416070
v -0.469236 0.137317 0.855385
v -0.286272 0.111260 0.231680
v 1.000435 0.204941 -1.589516
v -0.609677 0.106822 1.363704
v 0.074982 0.093183 0.791820
v 1.040971 0.094731 0.594928
v 1.623109 0.197230 0.840459
v 0.560964 0.165304 0.845739
v 0.711402 0.102518 -0.095602
v 1.346075 0.059099 1.116292
v -1.033663 0.169523 1.776340
v -0.940850 0.134616 0.920844
v -1.746720 0.220319 0.742253
v 1.493469 0.169240 -0.797417
v 0.544536 0.216102 -0.962123
v 0.733365 0.117795 -0.887599
v 1.049756 0.222370 -1.114538
vt 0.489895 0.750880
vt 0.530599 0.787199
vt 0.505763 0.840557
vt 0.484026 0.810251
vt 0.546652 0.857417
vt 0.546645 0.734360
vt 0.529556 0.882430
vt 0.967125 0.895516
vt 0.943561 0.766776
vt 0.968970 0.769403
vt 0.797421 0.896271
vt 0.793980 0.845138
vt 0.911654 0.857067
vt 0.882061 0.896485
vt 0.827998 0.796367
vt 0.888505 0.772137
vt 0.727512 0.896452
vt 0.740497 0.879169
vt 0.910708 0.718907
vt 0.938287 0.737545
vt 0.888796 0.737638
vt 0.244052 0.871309
vt 0.188757 0.871309
vt 0.745899 0.241246
vt 0.516674 0.241246
vt 0.541715 0.283825
vt 0.543125 0.387276
vt 0.516674 0.474496
vt 0.516674 0.704490
vt 0.749872 0.704489
vt 0.188757 0.980476
vt 0.244052 0.980476
vt 0.297846 0.871309
vt 0.188757 0.925887
vt 0.134305 0.871309
vt 0.134305 0.925887
vt 0.979515 0.471023
vt 0.979515 0.241246
vt 0.924420 0.449536
vt 0.867752 0.401572
vt 0.936339 0.372961
vt 0.979515 0.704489
vt 0.024813 0.871309
vt 0.758116 0.628305
vt 0.733361 0.521674
vt 0.817146 0.524297
vt 0.708718 0.644477
vt 0.663562 0.499681
vt 0.673533 0.482906
vt 0.624260 0.265558
vt 0.752897 0.431994
vt 0.767512 0.477731
vt 0.713730 0.445956
vt 0.865097 0.657893
vt 0.528022 0.494023
vt 0.546108 0.665754
vt 0.579635 0.526723
vt 0.623477 0.601766
vt 0.630102 0.514870
vt 0.613530 0.458841
vt 0.864571 0.263716
vt 0.817956 0.294193
vt 0.902262 0.340129
vt 0.754533 0.379777
vt 0.811355 0.371438
vt 0.731370 0.336691
vt 0.922315 0.564745
vt 0.830308 0.483619
vt 0.626203 0.390699
vt 0.607422 0.549572
vt 0.621211 0.568371
vt 0.637022 0.365129
vt 0.812427 0.586351
vt 0.674859 0.313176
vt 0.691519 0.372760
vt 0.834964 0.574357
vt 0.870583 0.602732
vt 0.079397 0.863153
vt 0.079397 0.871309
vt 0.297846 0.863153
vt 0.352431 0.863153
vt 0.244052 0.925887
vt 0.134305 0.863153
vt 0.244052 0.863154
vt 0.188757 0.863153
vt 0.134305 0.980476
vt 0.024813 0.863153
vt 0.352431 0.871309
vt 0.188757 0.988644
vt 0.134305 0.988644
vt 0.244052 0.988644
vn -0.062523 0.997822 -0.021044
vn -0.062523 0.997822 -0.021044
vn -0.062523 0.997822 -0.021044
vn -0.062523 0.997822 -0.021044
vn 0.167443 0.985882 0.000000
vn 0.167443 0.985882 0.000000
vn 0.167443 0.985882 0.000000
vn 0.042710 0.997164 -0.061967
vn 0.042710 0.997164 -0.061967
vn 0.042710 0.997164 -0.061967
vn 0.055039 0.997896 0.034268
vn 0.055039 0.997896 0.034268
vn 0.055039 0.997896 0.034268
vn 0.058059 0.997997 -0.025109
vn 0.058059 0.997997 -0.025109
vn 0.058059 0.997997 -0.025109
vn 0.000000 0.938394 -0.345567
vn 0.000000 0.938394 -0.345567
vn 0.000000 0.938394 -0.345567
vn -0.249443 0.968134 0.022224
vn -0.249443 0.968134 0.022224
vn -0.249443 0.968134 0.022224
vn -0.249443 0.968134 0.022224
vn 0.124099 0.992269 -0.001169
vn 0.124099 0.992269 -0.001169
vn 0.124099 0.992269 -0.001169
vn -0.010188 0.995308 0.096217
vn -0.010188 0.995308 0.096217
vn -0.010188 0.995308 0.096217
vn -0.311524 0.950238 0.000000
vn -0.311524 0.950238 0.000000
vn -0.311524 0.950238 0.000000
vn -0.254588 0.966465 -0.033612
vn -0.254588 0.966465 -0.033612
vn -0.254588 0.966465 -0.033612
vn -0.254588 0.966465 -0.033612
vn -0.030149 0.979575 -0.198804
vn -0.030149 0.979575 -0.198804
vn -0.030149 0.979575 -0.198804
vn 0.414889 0.666305 -0.619600
vn 0.414889 0.666305 -0.619600
vn 0.414889 0.666305 -0.619600
vn 0.061256 0.991422 0.115456
vn 0.061256 0.991422 0.115456
vn 0.061256 0.991422 0.115456
vn 0.061256 0.991422 0.115456
vn 0.026611 0.999056 -0.034336
vn 0.026611 0.999056 -0.034336
vn 0.026611 0.999056 -0.034336
vn 0.000000 0.000000 1.000000
vn 0.000000 0.000000 1.000000
vn 0.000000 0.000000 1.000000
vn 0.000000 0.000000 1.000000
vn -0.191633 0.977664 0.086308
vn -0.140326 0.989548 0.033214
vn -0.132781 0.991041 -0.014415
vn -0.085481 0.992139 -0.091401
vn 0.000000 0.000000 -1.000000
vn 0.000000 0.000000 -1.000000
vn 0.000000 0.000000 -1.000000
vn 0.000000 0.000000 -1.000000
vn 0.000000 -1.000000 0.000000
vn 0.000000 -1.000000 0.000000
vn 0.000000 -1.000000 0.000000
vn 0.000000 -1.000000 0.000000
vn 1.000000 0.000000 0.000000
vn 1.000000 0.000000 0.000000
vn 1.000000 0.000000 0.000000
vn 1.000000 0.000000 0.000000
vn -1.000000 0.000000 0.000000
vn -1.000000 0.000000 0.000000
vn -1.000000 0.000000 0.000000
vn -1.000000 0.000000 0.000000
vn 0.000000 0.000000 1.000000
vn 0.000000 0.000000 1.000000
vn 0.000000 0.000000 1.000000
vn 0.000000 0.000000 1.000000
vn 0.003273 0.998591 -0.052962
vn -0.057783 0.998204 -0.015797
vn 0.025467 0.993578 0.110245
vn -0.005890 0.999896 0.013199
vn 0.000000 0.000000 -1.000000
vn 0.000000 0.000000 -1.000000
vn 0.000000 0.000000 -1.000000
vn 0.000000 0.000000 -1.000000
vn 0.000000 -1.000000 0.000000
vn 0.000000 -1.000000 0.000000
vn 0.000000 -1.000000 0.000000
vn 0.000000 -1.000000 0.000000
vn -1.000000 0.000000 0.000000
vn -1.000000 0.000000 0.000000
vn -1.000000 0.000000 0.000000
vn -1.000000 0.000000 0.000000
vn 0.000000 -1.000000 0.000000
vn 0.000000 -1.000000 0.000000
vn 0.000000 -1.000000 0.000000
vn 0.000000 -1.000000 0.000000
vn 0.000000 -1.000000 0.000000
vn 0.000000 -1.000000 0.000000
vn 0.000000 -1.000000 0.000000
vn 0.000000 -1.000000 0.000000
vn 1.000000 0.000000 0.000000
vn 1.000000 0.000000 0.000000
vn 1.000000 0.000000 0.000000
vn 1.000000 0.000000 0.000000
vn -0.051889 0.998493 0.017882
vn 0.026853 0.999558 0.012778
vn -0.017172 0.999810 0.009261
vn 0.099192 0.994233 -0.040753
vn 0.203120 0.977129 0.062942
vn 0.308280 0.946309 0.097276
vn 0.044262 0.994084 -0.099186
vn -0.191633 0.977664 0.086308
vn 0.034885 0.998286 0.046998
vn -0.140326 0.989548 0.033214
vn -0.016508 0.991007 -0.132787
vn -0.001066 0.990125 -0.140181
vn -0.037906 0.999149 -0.016240
vn -0.086220 0.994201 -0.064276
vn -0.001066 0.990125 -0.140181
vn -0.022928 0.999734 0.002567
vn -0.037906 0.999149 -0.016240
vn 0.000000 0.984067 -0.177797
vn 0.030420 0.994142 -0.103714
vn 0.057309 0.997661 -0.037257
vn -0.383419 0.923467 -0.014088
vn -0.223851 0.974609 -0.005265
vn -0.074251 0.995191 -0.063892
vn -0.071570 0.992895 -0.095068
vn -0.071570 0.992895 -0.095068
vn -0.074251 0.995191 -0.063892
vn 0.099192 0.994233 -0.040753
vn 0.044262 0.994084 -0.099186
vn -0.223851 0.974609 -0.005265
vn 0.023763 0.999696 0.006562
vn 0.026745 0.999641 0.001631
vn -0.074251 0.995191 -0.063892
vn 0.016122 0.989903 0.140824
vn 0.022433 0.989937 0.139718
vn -0.008281 0.989390 0.145047
vn -0.008281 0.989390 0.145047
vn 0.023737 0.998306 0.053120
vn 0.016296 0.999722 0.017031
vn 0.042689 0.999063 -0.007184
vn 0.006865 0.999151 -0.040633
vn -0.005890 0.999896 0.013199
vn -0.063872 0.997942 0.005712
vn -0.013950 0.999818 -0.013029
vn 0.025467 0.993578 0.110245
vn -0.057783 0.998204 -0.015797
vn -0.006806 0.977160 0.212395
vn 0.023737 0.998306 0.053120
vn 0.042689 0.999063 -0.007184
vn 0.041907 0.994314 -0.097900
vn -0.033130 0.999095 -0.026670
vn 0.057309 0.997661 -0.037257
vn 0.030420 0.994142 -0.103714
vn 0.072221 0.997389 0.000000
vn -0.016508 0.991007 -0.132787
vn 0.029823 0.983663 -0.177534
vn 0.029823 0.983663 -0.177534
vn -0.001066 0.990125 -0.140181
vn 0.038234 0.993699 -0.105354
vn 0.031747 0.992103 -0.121344
vn 0.083593 0.995708 0.039714
vn 0.038234 0.993699 -0.105354
vn 0.023763 0.999696 0.006562
vn 0.156262 0.984910 0.074396
vn 0.004991 0.992698 0.120526
vn 0.026745 0.999641 0.001631
vn 0.068452 0.993365 0.092417
vn 0.068452 0.993365 0.092417
vn 0.068452 0.993365 0.092417
vn -0.085481 0.992139 -0.091401
vn 0.083593 0.995708 0.039714
vn 0.031747 0.992103 -0.121344
vn 0.203120 0.977129 0.062942
vn 0.026745 0.999641 0.001631
vn 0.004991 0.992698 0.120526
vn 0.111875 0.988513 -0.101616
vn 0.156262 0.984910 0.074396
vn 0.023763 0.999696 0.006562
vn 0.203120 0.977129 0.062942
vn 0.004991 0.992698 0.120526
vn -0.122028 0.991977 0.033034
vn 0.099192 0.994233 -0.040753
vn 0.026745 0.999641 0.001631
vn 0.203120 0.977129 0.062942
vn -0.074251 0.995191 -0.063892
vn 0.026745 0.999641 0.001631
vn 0.099192 0.994233 -0.040753
vn -0.122028 0.991977 0.033034
vn 0.004991 0.992698 0.120526
vn 0.156262 0.984910 0.074396
vn -0.041493 0.998746 0.028010
vn -0.017172 0.999810 0.009261
vn -0.006089 0.998772 -0.049168
vn -0.021357 0.999028 -0.038567
vn -0.047148 0.998855 -0.008133
vn -0.037906 0.999149 -0.016240
vn -0.022928 0.999734 0.002567
vn -0.051889 0.998493 0.017882
vn 0.034885 0.998286 0.046998
vn 0.066336 0.997787 -0.004661
vn -0.140326 0.989548 0.033214
vn 0.141348 0.975655 0.167685
vn -0.132781 0.991041 -0.014415
vn -0.140326 0.989548 0.033214
vn -0.006806 0.977160 0.212395
vn -0.345948 0.903701 0.252278
vn -0.013950 0.999818 -0.013029
vn 0.029621 0.989926 0.138450
vn 0.022433 0.989937 0.139718
vn 0.016122 0.989903 0.140824
vn 0.029621 0.989926 0.138450
vn -0.047148 0.998855 -0.008133
vn -0.051889 0.998493 0.017882
vn -0.100860 0.994897 0.002766
vn -0.017172 0.999810 0.009261
vn -0.113269 0.991568 0.062948
vn -0.100860 0.994897 0.002766
vn -0.051889 0.998493 0.017882
vn 0.023737 0.998306 0.053120
vn -0.033130 0.999095 -0.026670
vn -0.155465 0.981391 0.112705
vn 0.042689 0.999063 -0.007184
vn 0.025467 0.993578 0.110245
vn 0.041907 0.994314 -0.097900
vn -0.005890 0.999896 0.013199
vn 0.025467 0.993578 0.110245
vn -0.063872 0.997942 0.005712
vn 0.041907 0.994314 -0.097900
vn 0.025467 0.993578 0.110245
vn -0.013950 0.999818 -0.013029
vn -0.033130 0.999095 -0.026670
vn -0.006089 0.998772 -0.049168
vn -0.017172 0.999810 0.009261
vn 0.026853 0.999558 0.012778
vn 0.031753 0.996651 -0.075361
vn -0.063872 0.997942 0.005712
vn 0.042689 0.999063 -0.007184
vn 0.016296 0.999722 0.017031
vn 0.006865 0.999151 -0.040633
vn -0.063872 0.997942 0.005712
vn 0.016296 0.999722 0.017031
vn 0.003273 0.998591 -0.052962
vn -0.005890 0.999896 0.013199
vn 0.172153 0.985070 0.000000
vn -0.063872 0.997942 0.005712
vn 0.025467 0.993578 0.110245
vn 0.042689 0.999063 -0.007184
vn 0.006865 0.999151 -0.040633
vn 0.016296 0.999722 0.017031
vn 0.000000 0.951473 0.307732
vn -0.191633 0.977664 0.086308
vn 0.042610 0.998280 -0.040266
vn 0.034885 0.998286 0.046998
vn 0.065125 0.997452 -0.029130
vn 0.034885 0.998286 0.046998
vn 0.042610 0.998280 -0.040266
vn 0.071638 0.997390 0.009026
vn 0.066336 0.997787 -0.004661
vn 0.034885 0.998286 0.046998
vn 0.065125 0.997452 -0.029130
vn -0.012001 0.998904 -0.045253
vn -0.012001 0.998904 -0.045253
vn -0.012001 0.998904 -0.045253
vn -0.085481 0.992139 -0.091401
vn -0.132781 0.991041 -0.014415
vn 0.083593 0.995708 0.039714
vn -0.021883 0.998509 -0.050012
vn -0.033130 0.999095 -0.026670
vn -0.013950 0.999818 -0.013029
vn -0.021883 0.998509 -0.050012
vn -0.013950 0.999818 -0.013029
vn 0.090342 0.992320 0.084492
vn 0.078662 0.996728 -0.018566
vn 0.078662 0.996728 -0.018566
vn 0.078662 0.996728 -0.018566
vn 0.083593 0.995708 0.039714
vn -0.132781 0.991041 -0.014415
vn 0.141348 0.975655 0.167685
vn 0.173227 0.939735 0.294771
vn -0.041493 0.998746 0.028010
vn -0.052521 0.995033 0.084564
vn -0.017172 0.999810 0.009261
vn -0.017172 0.999810 0.009261
vn -0.052521 0.995033 0.084564
vn 0.034171 0.981080 0.190562
vn 0.155529 0.986443 -0.052348
vn 0.021067 0.996765 0.077560
vn -0.052521 0.995033 0.084564
vn 0.057309 0.997661 -0.037257
vn 0.072221 0.997389 0.000000
vn 0.072221 0.997389 0.000000
vn -0.113269 0.991568 0.062948
vn 0.034171 0.981080 0.190562
vn 0.021067 0.996765 0.077560
vn -0.052521 0.995033 0.084564
vn 0.021067 0.996765 0.077560
vn 0.034171 0.981080 0.190562
vn -0.017172 0.999810 0.009261
vn 0.034171 0.981080 0.190562
vn -0.113269 0.991568 0.062948
vn -0.100860 0.994897 0.002766
vn -0.113269 0.991568 0.062948
vn 0.021067 0.996765 0.077560
s off
g piso_3:musgo_2piso_3
usemtl lambert2SG
f 1/1/1 7/2/2 5/3/3 3/4/4
f 4/5/5 7/2/6 2/6/7
f 5/3/8 4/5/9 6/7/10
f 1/1/11 2/6/12 7/2/13
f 5/3/14 7/2/15 4/5/16
f 10/8/17 18/9/18 11/10/19
f 8/11/20 14/12/21 15/13/22 12/14/23
f 15/13/24 14/12/25 9/15/26
f 15/13/27 9/15/28 13/16/29
f 12/14/30 15/13/31 10/8/32
f 14/12/33 8/11/34 16/17/35 17/18/36
f 10/8/37 15/13/38 18/9/39
f 18/9/40 21/19/41 20/20/42
f 18/9/43 13/16/44 19/21/45 21/19/46
f 18/9/47 15/13/48 13/16/49
f 22/22/50 30/23/51 31/85/52 24/84/53
f 24/25/54 40/26/55 73/27/56 34/28/57
f 26/91/58 32/89/59 33/31/60 28/32/61
f 35/82/62 36/34/63 30/23/64 22/22/65
f 23/35/66 37/79/67 38/78/68 25/83/69
f 34/80/70 35/33/71 22/22/72 24/84/73
f 31/85/74 30/23/75 23/35/76 25/83/77
f 38/37/78 48/39/79 66/40/80 67/41/81
f 33/31/82 32/89/83 27/90/84 29/86/85
f 30/23/86 36/34/87 37/36/88 23/35/89
f 28/88/90 35/33/91 34/80/92 26/81/93
f 28/32/94 33/31/95 36/34/96 35/82/97
f 37/36/98 36/34/99 33/31/100 29/86/101
f 38/78/102 37/79/103 29/43/104 27/87/105
f 43/44/106 60/45/107 42/46/108
f 44/47/109 52/48/110 39/49/111 32/30/112
f 24/25/113 71/50/114 40/26/115
f 50/51/116 59/52/117 39/49/118 62/53/119
f 59/52/120 60/45/121 39/49/122
f 32/30/123 63/54/124 27/42/125
f 34/28/126 51/55/127 45/56/128 26/29/129
f 26/29/130 45/56/131 44/47/132 32/30/133
f 51/55/134 53/57/135 54/58/136 45/56/137
f 55/59/138 56/60/139 39/49/140 52/48/141
f 31/24/142 47/61/143 49/62/144
f 25/38/145 67/41/146 70/63/147
f 65/64/148 66/40/149 48/39/150 50/51/151
f 31/24/152 49/62/153 68/65/154 41/66/155
f 27/42/156 63/54/157 74/67/158
f 50/51/159 48/39/160 69/68/161 59/52/162
f 39/49/163 56/60/164 46/69/165 62/53/166
f 53/57/167 58/70/168 57/71/169 54/58/170
f 51/55/171 55/59/172 53/57/173
f 34/28/174 46/69/175 56/60/176
f 52/48/177 54/58/178 57/71/179
f 55/59/180 58/70/181 53/57/182
f 52/48/183 57/71/184 55/59/185
f 44/47/186 54/58/187 52/48/188
f 45/56/189 54/58/190 44/47/191
f 55/59/192 57/71/193 58/70/194
f 38/37/195 42/46/196 69/68/197 48/39/198
f 32/30/199 39/49/200 60/45/201 43/44/202
f 71/50/203 72/72/204 40/26/205
f 72/72/206 73/27/207 40/26/208
f 50/51/209 62/53/210 65/64/211
f 34/28/212 56/60/213 55/59/214 51/55/215
f 32/30/216 43/44/217 63/54/218
f 42/46/219 75/73/220 63/54/221 43/44/222
f 31/24/223 41/66/224 64/74/225
f 49/62/226 66/40/227 68/65/228
f 67/41/229 66/40/230 70/63/231
f 68/65/232 66/40/233 65/64/234 41/66/235
f 69/68/236 42/46/237 60/45/238 59/52/239
f 70/63/240 49/62/241 47/61/242
f 25/38/243 70/63/244 47/61/245
f 38/37/246 67/41/247 25/38/248
f 70/63/249 66/40/250 49/62/251
f 25/38/252 47/61/253 31/24/254
f 24/25/255 31/24/256 71/50/257
f 64/74/258 71/50/259 31/24/260
f 61/75/261 72/72/262 71/50/263 64/74/264
f 62/53/265 72/72/266 61/75/267
f 34/28/268 73/27/269 46/69/270
f 64/74/271 41/66/272 65/64/273
f 64/74/274 65/64/275 61/75/276
f 65/64/277 62/53/278 61/75/279
f 46/69/280 73/27/281 72/72/282 62/53/283
f 38/37/284 74/67/285 42/46/286
f 42/46/287 74/67/288 76/76/289
f 63/54/290 77/77/291 74/67/292
f 27/42/293 74/67/294 38/37/295
f 75/73/296 76/76/297 77/77/298
f 74/67/299 77/77/300 76/76/301
f 42/46/302 76/76/303 75/73/304
f 63/54/305 75/73/306 77/77/307
