# This file uses centimeters as units for non-parametric coordinates.

mtllib boton xd.mtl
g default
v -0.205712 0.314809 0.271832
v -0.330349 0.314809 0.055953
v -0.287064 0.314809 -0.189538
v -0.096107 0.314809 -0.349771
v 0.153169 0.314809 -0.349771
v 0.344126 0.314809 -0.189538
v 0.387412 0.314809 0.055953
v 0.262774 0.314809 0.271832
v 0.028532 0.314809 0.357089
v -0.205712 0.142651 0.271832
v -0.330349 0.142651 0.055953
v -0.287064 0.142651 -0.189538
v -0.096107 0.142651 -0.349771
v 0.153169 0.142651 -0.349771
v 0.344126 0.142651 -0.189538
v 0.387412 0.142651 0.055953
v 0.262774 0.142651 0.271832
v 0.028532 0.142651 0.357089
v 0.028532 0.314809 -0.007327
v 0.028532 0.142651 -0.007327
v 0.324283 0.275687 -0.456353
v 0.410961 0.275687 -0.456353
v 0.454300 0.275687 -0.381288
v 0.410961 0.275687 -0.306222
v 0.324283 0.275687 -0.306222
v 0.280944 0.275687 -0.381288
v 0.324283 0.229909 -0.456353
v 0.410961 0.229909 -0.456353
v 0.454300 0.229909 -0.381288
v 0.410961 0.229909 -0.306222
v 0.324283 0.229909 -0.306222
v 0.280944 0.229909 -0.381288
v 0.367622 0.275687 -0.381288
v 0.367622 0.229909 -0.381288
v -0.401637 0.275687 -0.456353
v -0.314959 0.275687 -0.456353
v -0.271620 0.275687 -0.381288
v -0.314959 0.275687 -0.306222
v -0.401637 0.275687 -0.306222
v -0.444975 0.275687 -0.381288
v -0.401637 0.229909 -0.456353
v -0.314959 0.229909 -0.456353
v -0.271620 0.229909 -0.381288
v -0.314959 0.229909 -0.306222
v -0.401637 0.229909 -0.306222
v -0.444975 0.229909 -0.381288
v -0.358298 0.275687 -0.381288
v -0.358298 0.229909 -0.381288
v -0.401637 0.275687 0.284621
v -0.314959 0.275687 0.284621
v -0.271620 0.275687 0.359687
v -0.314959 0.275687 0.434751
v -0.401637 0.275687 0.434751
v -0.444975 0.275687 0.359687
v -0.401637 0.229909 0.284621
v -0.314959 0.229909 0.284621
v -0.271620 0.229909 0.359687
v -0.314959 0.229909 0.434751
v -0.401637 0.229909 0.434751
v -0.444975 0.229909 0.359687
v -0.358298 0.275687 0.359687
v -0.358298 0.229909 0.359687
v 0.324283 0.275687 0.284621
v 0.410961 0.275687 0.284621
v 0.454300 0.275687 0.359687
v 0.410961 0.275687 0.434751
v 0.324283 0.275687 0.434751
v 0.280944 0.275687 0.359687
v 0.324283 0.229909 0.284621
v 0.410961 0.229909 0.284621
v 0.454300 0.229909 0.359687
v 0.410961 0.229909 0.434751
v 0.324283 0.229909 0.434751
v 0.280944 0.229909 0.359687
v 0.367622 0.275687 0.359687
v 0.367622 0.229909 0.359687
v -0.481360 0.212955 0.601701
v -0.481360 0.235238 0.490241
v -0.592822 0.212955 0.490241
v -0.481360 0.235238 -0.490823
v -0.481360 0.212955 -0.602285
v -0.592822 0.212955 -0.490823
v -0.481360 0.016811 0.601701
v -0.592822 0.016811 0.490241
v -0.481360 -0.005472 0.490242
v -0.481360 0.016811 -0.602285
v -0.481360 -0.005473 -0.490823
v -0.592822 0.016811 -0.490823
v 0.499704 0.212955 0.601701
v 0.611164 0.212955 0.490241
v 0.499704 0.235238 0.490241
v 0.499704 0.212955 -0.602285
v 0.499704 0.235238 -0.490823
v 0.611164 0.212955 -0.490823
v 0.499704 0.016811 0.601701
v 0.499704 -0.005472 0.490242
v 0.611164 0.016811 0.490241
v 0.499704 0.016811 -0.602285
v 0.611164 0.016811 -0.490823
v 0.499704 -0.005473 -0.490823
vt 0.348886 0.838136
vt 0.331052 0.806190
vt 0.296086 0.768686
vt 0.245963 0.786928
vt 0.296857 0.793182
vt 0.346208 0.786930
vt 0.262301 0.805195
vt 0.372877 0.833124
vt 0.243550 0.836610
vt 0.363613 0.885652
vt 0.249376 0.872730
vt 0.322752 0.919937
vt 0.277061 0.896651
vt 0.269412 0.919936
vt 0.313645 0.897181
vt 0.228554 0.885649
vt 0.342011 0.874071
vt 0.219292 0.833120
vt 0.296083 0.846663
vt 0.296084 0.846662
vt 0.413801 0.895369
vt 0.400807 0.894994
vt 0.387465 0.906425
vt 0.397214 0.923327
vt 0.393982 0.906059
vt 0.397228 0.889531
vt 0.400153 0.917507
vt 0.416740 0.889538
vt 0.413153 0.917879
vt 0.426490 0.906440
vt 0.419972 0.906808
vt 0.416727 0.923335
vt 0.406977 0.906438
vt 0.406977 0.906432
vt 0.413795 0.895361
vt 0.400800 0.894991
vt 0.387465 0.906425
vt 0.397214 0.923327
vt 0.393978 0.906063
vt 0.397228 0.889531
vt 0.400163 0.917503
vt 0.416740 0.889538
vt 0.413160 0.917865
vt 0.426490 0.906441
vt 0.419975 0.906796
vt 0.416727 0.923335
vt 0.406976 0.906429
vt 0.406977 0.906432
vt 0.413784 0.895355
vt 0.400790 0.894999
vt 0.387465 0.906425
vt 0.397214 0.923327
vt 0.393982 0.906076
vt 0.397227 0.889531
vt 0.400170 0.917514
vt 0.416740 0.889539
vt 0.413170 0.917866
vt 0.426490 0.906440
vt 0.419973 0.906785
vt 0.416727 0.923335
vt 0.406976 0.906435
vt 0.406978 0.906433
vt 0.413801 0.895368
vt 0.400807 0.894994
vt 0.387465 0.906426
vt 0.397215 0.923327
vt 0.393982 0.906059
vt 0.397227 0.889531
vt 0.400153 0.917506
vt 0.416740 0.889538
vt 0.413153 0.917879
vt 0.426490 0.906440
vt 0.419972 0.906808
vt 0.416727 0.923334
vt 0.406977 0.906438
vt 0.406977 0.906433
vt 0.182416 0.770185
vt 0.182449 0.918404
vt 0.034230 0.918438
vt 0.034197 0.770220
vt 0.038849 0.953736
vt 0.199582 0.770085
vt 0.187084 0.983372
vt 0.199582 0.770085
vt 0.182506 0.753004
vt 0.034096 0.753054
vt 0.359138 0.983373
vt 0.182550 0.935570
vt 0.531191 0.983372
vt 0.017064 0.918538
vt 0.382955 0.953736
vt 0.017064 0.918539
vt 0.034230 0.918439
vt 0.034197 0.770220
vt 0.182416 0.770185
vt 0.182449 0.918404
vt 0.555008 0.983372
vt 0.034140 0.935619
vt 0.182506 0.753004
vt 0.015032 0.953736
vt 0.372877 0.833125
vt 0.363608 0.885656
vt 0.322743 0.919938
vt 0.269403 0.919931
vt 0.228545 0.885639
vt 0.219292 0.833107
vt 0.245968 0.786922
vt 0.296089 0.768686
vt 0.346207 0.786930
vt 0.416739 0.889540
vt 0.426489 0.906434
vt 0.416737 0.923331
vt 0.397215 0.923333
vt 0.387465 0.906421
vt 0.397233 0.889533
vt 0.416713 0.889521
vt 0.426489 0.906401
vt 0.416763 0.923313
vt 0.397240 0.923345
vt 0.387465 0.906447
vt 0.397207 0.889544
vt 0.416734 0.889532
vt 0.426491 0.906422
vt 0.416746 0.923319
vt 0.397237 0.923336
vt 0.387463 0.906436
vt 0.397224 0.889530
vt 0.416739 0.889540
vt 0.426489 0.906434
vt 0.416737 0.923331
vt 0.397215 0.923333
vt 0.387465 0.906421
vt 0.397233 0.889532
vt 0.034096 0.753054
vt 0.015032 0.983372
vt 0.703244 0.983372
vt 0.182550 0.935570
vt 0.703244 0.953736
vt 0.555008 0.953736
vt 0.210902 0.953736
vt 0.187084 0.953736
vt 0.199630 0.918495
vt 0.199630 0.918494
vt 0.210902 0.983372
vt 0.038849 0.983373
vt 0.017016 0.770129
vt 0.359137 0.953736
vt 0.531191 0.953736
vt 0.034140 0.935619
vt 0.382955 0.983373
vt 0.017016 0.770129
vn -0.866026 0.000000 0.499999
vn -0.866026 0.000000 0.499999
vn -0.866026 0.000000 0.499999
vn -0.866026 0.000000 0.499999
vn -0.984808 0.000000 -0.173648
vn -0.984808 0.000000 -0.173648
vn -0.984808 0.000000 -0.173648
vn -0.984808 0.000000 -0.173648
vn -0.642788 0.000000 -0.766044
vn -0.642788 0.000000 -0.766044
vn -0.642788 0.000000 -0.766044
vn -0.642788 0.000000 -0.766044
vn 0.000000 0.000000 -1.000000
vn 0.000000 0.000000 -1.000000
vn 0.000000 0.000000 -1.000000
vn 0.000000 0.000000 -1.000000
vn 0.642788 0.000000 -0.766044
vn 0.642788 0.000000 -0.766044
vn 0.642788 0.000000 -0.766044
vn 0.642788 0.000000 -0.766044
vn 0.984808 0.000000 -0.173648
vn 0.984808 0.000000 -0.173648
vn 0.984808 0.000000 -0.173648
vn 0.984808 0.000000 -0.173648
vn 0.866026 0.000000 0.500000
vn 0.866026 0.000000 0.500000
vn 0.866026 0.000000 0.500000
vn 0.866026 0.000000 0.500000
vn 0.342020 0.000000 0.939693
vn 0.342020 0.000000 0.939693
vn 0.342020 0.000000 0.939693
vn 0.342020 0.000000 0.939693
vn -0.342020 0.000000 0.939693
vn -0.342020 0.000000 0.939693
vn -0.342020 0.000000 0.939693
vn -0.342020 0.000000 0.939693
vn 0.000000 1.000000 0.000000
vn 0.000000 1.000000 0.000000
vn 0.000000 1.000000 0.000000
vn 0.000000 1.000000 0.000000
vn 0.000000 1.000000 0.000000
vn 0.000000 1.000000 0.000000
vn 0.000000 1.000000 0.000000
vn 0.000000 1.000000 0.000000
vn 0.000000 1.000000 0.000000
vn 0.000000 1.000000 0.000000
vn 0.000000 1.000000 0.000000
vn 0.000000 1.000000 0.000000
vn 0.000000 1.000000 0.000000
vn 0.000000 1.000000 0.000000
vn 0.000000 1.000000 0.000000
vn 0.000000 1.000000 0.000000
vn 0.000000 1.000000 0.000000
vn 0.000000 1.000000 0.000000
vn 0.000000 1.000000 0.000000
vn 0.000000 1.000000 0.000000
vn 0.000000 1.000000 0.000000
vn 0.000000 1.000000 0.000000
vn 0.000000 1.000000 0.000000
vn 0.000000 1.000000 0.000000
vn 0.000000 1.000000 0.000000
vn 0.000000 1.000000 0.000000
vn 0.000000 1.000000 0.000000
vn 0.000000 -1.000000 0.000000
vn 0.000000 -1.000000 0.000000
vn 0.000000 -1.000000 0.000000
vn 0.000000 -1.000000 0.000000
vn 0.000000 -1.000000 0.000000
vn 0.000000 -1.000000 0.000000
vn 0.000000 -1.000000 0.000000
vn 0.000000 -1.000000 0.000000
vn 0.000000 -1.000000 0.000000
vn 0.000000 -1.000000 0.000000
vn 0.000000 -1.000000 0.000000
vn 0.000000 -1.000000 0.000000
vn 0.000000 -1.000000 0.000000
vn 0.000000 -1.000000 0.000000
vn 0.000000 -1.000000 0.000000
vn 0.000000 -1.000000 0.000000
vn 0.000000 -1.000000 0.000000
vn 0.000000 -1.000000 0.000000
vn 0.000000 -1.000000 0.000000
vn 0.000000 -1.000000 0.000000
vn 0.000000 -1.000000 0.000000
vn 0.000000 -1.000000 0.000000
vn 0.000000 -1.000000 0.000000
vn 0.000000 -1.000000 0.000000
vn 0.000000 -1.000000 0.000000
vn 0.000000 -1.000000 0.000000
vn 0.000000 -1.000000 0.000000
vn 0.000000 0.000000 -1.000000
vn 0.000000 0.000000 -1.000000
vn 0.000000 0.000000 -1.000000
vn 0.000000 0.000000 -1.000000
vn 0.866025 0.000000 -0.500000
vn 0.866025 0.000000 -0.500000
vn 0.866025 0.000000 -0.500000
vn 0.866025 0.000000 -0.500000
vn 0.866026 0.000000 0.500000
vn 0.866026 0.000000 0.500000
vn 0.866026 0.000000 0.500000
vn 0.866026 0.000000 0.500000
vn 0.000000 0.000000 1.000000
vn 0.000000 0.000000 1.000000
vn 0.000000 0.000000 1.000000
vn 0.000000 0.000000 1.000000
vn -0.866025 0.000000 0.500000
vn -0.866025 0.000000 0.500000
vn -0.866025 0.000000 0.500000
vn -0.866025 0.000000 0.500000
vn -0.866025 0.000000 -0.500000
vn -0.866025 0.000000 -0.500000
vn -0.866025 0.000000 -0.500000
vn -0.866025 0.000000 -0.500000
vn 0.000000 1.000000 0.000000
vn 0.000000 1.000000 0.000000
vn 0.000000 1.000000 0.000000
vn 0.000000 1.000000 0.000000
vn 0.000000 1.000000 0.000000
vn 0.000000 1.000000 0.000000
vn 0.000000 1.000000 0.000000
vn 0.000000 1.000000 0.000000
vn 0.000000 1.000000 0.000000
vn 0.000000 1.000000 0.000000
vn 0.000000 1.000000 0.000000
vn 0.000000 1.000000 0.000000
vn 0.000000 1.000000 0.000000
vn 0.000000 1.000000 0.000000
vn 0.000000 1.000000 0.000000
vn 0.000000 1.000000 0.000000
vn 0.000000 1.000000 0.000000
vn 0.000000 1.000000 0.000000
vn 0.000000 -1.000000 0.000000
vn 0.000000 -1.000000 0.000000
vn 0.000000 -1.000000 0.000000
vn 0.000000 -1.000000 0.000000
vn 0.000000 -1.000000 0.000000
vn 0.000000 -1.000000 0.000000
vn 0.000000 -1.000000 0.000000
vn 0.000000 -1.000000 0.000000
vn 0.000000 -1.000000 0.000000
vn 0.000000 -1.000000 0.000000
vn 0.000000 -1.000000 0.000000
vn 0.000000 -1.000000 0.000000
vn 0.000000 -1.000000 0.000000
vn 0.000000 -1.000000 0.000000
vn 0.000000 -1.000000 0.000000
vn 0.000000 -1.000000 0.000000
vn 0.000000 -1.000000 0.000000
vn 0.000000 -1.000000 0.000000
vn 0.000000 0.000000 -1.000000
vn 0.000000 0.000000 -1.000000
vn 0.000000 0.000000 -1.000000
vn 0.000000 0.000000 -1.000000
vn 0.866025 0.000000 -0.500000
vn 0.866025 0.000000 -0.500000
vn 0.866025 0.000000 -0.500000
vn 0.866025 0.000000 -0.500000
vn 0.866026 0.000000 0.500000
vn 0.866026 0.000000 0.500000
vn 0.866026 0.000000 0.500000
vn 0.866026 0.000000 0.500000
vn 0.000000 0.000000 1.000000
vn 0.000000 0.000000 1.000000
vn 0.000000 0.000000 1.000000
vn 0.000000 0.000000 1.000000
vn -0.866025 0.000000 0.500000
vn -0.866025 0.000000 0.500000
vn -0.866025 0.000000 0.500000
vn -0.866025 0.000000 0.500000
vn -0.866025 0.000000 -0.500000
vn -0.866025 0.000000 -0.500000
vn -0.866025 0.000000 -0.500000
vn -0.866025 0.000000 -0.500000
vn 0.000000 1.000000 0.000000
vn 0.000000 1.000000 0.000000
vn 0.000000 1.000000 0.000000
vn 0.000000 1.000000 0.000000
vn 0.000000 1.000000 0.000000
vn 0.000000 1.000000 0.000000
vn 0.000000 1.000000 0.000000
vn 0.000000 1.000000 0.000000
vn 0.000000 1.000000 0.000000
vn 0.000000 1.000000 0.000000
vn 0.000000 1.000000 0.000000
vn 0.000000 1.000000 0.000000
vn 0.000000 1.000000 0.000000
vn 0.000000 1.000000 0.000000
vn 0.000000 1.000000 0.000000
vn 0.000000 1.000000 0.000000
vn 0.000000 1.000000 0.000000
vn 0.000000 1.000000 0.000000
vn 0.000000 -1.000000 0.000000
vn 0.000000 -1.000000 0.000000
vn 0.000000 -1.000000 0.000000
vn 0.000000 -1.000000 0.000000
vn 0.000000 -1.000000 0.000000
vn 0.000000 -1.000000 0.000000
vn 0.000000 -1.000000 0.000000
vn 0.000000 -1.000000 0.000000
vn 0.000000 -1.000000 0.000000
vn 0.000000 -1.000000 0.000000
vn 0.000000 -1.000000 0.000000
vn 0.000000 -1.000000 0.000000
vn 0.000000 -1.000000 0.000000
vn 0.000000 -1.000000 0.000000
vn 0.000000 -1.000000 0.000000
vn 0.000000 -1.000000 0.000000
vn 0.000000 -1.000000 0.000000
vn 0.000000 -1.000000 0.000000
vn 0.000000 0.000000 -1.000000
vn 0.000000 0.000000 -1.000000
vn 0.000000 0.000000 -1.000000
vn 0.000000 0.000000 -1.000000
vn 0.866025 0.000000 -0.500000
vn 0.866025 0.000000 -0.500000
vn 0.866025 0.000000 -0.500000
vn 0.866025 0.000000 -0.500000
vn 0.866026 0.000000 0.500000
vn 0.866026 0.000000 0.500000
vn 0.866026 0.000000 0.500000
vn 0.866026 0.000000 0.500000
vn 0.000000 0.000000 1.000000
vn 0.000000 0.000000 1.000000
vn 0.000000 0.000000 1.000000
vn 0.000000 0.000000 1.000000
vn -0.866025 0.000000 0.500000
vn -0.866025 0.000000 0.500000
vn -0.866025 0.000000 0.500000
vn -0.866025 0.000000 0.500000
vn -0.866025 0.000000 -0.500000
vn -0.866025 0.000000 -0.500000
vn -0.866025 0.000000 -0.500000
vn -0.866025 0.000000 -0.500000
vn 0.000000 1.000000 0.000000
vn 0.000000 1.000000 0.000000
vn 0.000000 1.000000 0.000000
vn 0.000000 1.000000 0.000000
vn 0.000000 1.000000 0.000000
vn 0.000000 1.000000 0.000000
vn 0.000000 1.000000 0.000000
vn 0.000000 1.000000 0.000000
vn 0.000000 1.000000 0.000000
vn 0.000000 1.000000 0.000000
vn 0.000000 1.000000 0.000000
vn 0.000000 1.000000 0.000000
vn 0.000000 1.000000 0.000000
vn 0.000000 1.000000 0.000000
vn 0.000000 1.000000 0.000000
vn 0.000000 1.000000 0.000000
vn 0.000000 1.000000 0.000000
vn 0.000000 1.000000 0.000000
vn 0.000000 -1.000000 0.000000
vn 0.000000 -1.000000 0.000000
vn 0.000000 -1.000000 0.000000
vn 0.000000 -1.000000 0.000000
vn 0.000000 -1.000000 0.000000
vn 0.000000 -1.000000 0.000000
vn 0.000000 -1.000000 0.000000
vn 0.000000 -1.000000 0.000000
vn 0.000000 -1.000000 0.000000
vn 0.000000 -1.000000 0.000000
vn 0.000000 -1.000000 0.000000
vn 0.000000 -1.000000 0.000000
vn 0.000000 -1.000000 0.000000
vn 0.000000 -1.000000 0.000000
vn 0.000000 -1.000000 0.000000
vn 0.000000 -1.000000 0.000000
vn 0.000000 -1.000000 0.000000
vn 0.000000 -1.000000 0.000000
vn 0.000000 0.000000 -1.000000
vn 0.000000 0.000000 -1.000000
vn 0.000000 0.000000 -1.000000
vn 0.000000 0.000000 -1.000000
vn 0.866025 0.000000 -0.500000
vn 0.866025 0.000000 -0.500000
vn 0.866025 0.000000 -0.500000
vn 0.866025 0.000000 -0.500000
vn 0.866026 0.000000 0.500000
vn 0.866026 0.000000 0.500000
vn 0.866026 0.000000 0.500000
vn 0.866026 0.000000 0.500000
vn 0.000000 0.000000 1.000000
vn 0.000000 0.000000 1.000000
vn 0.000000 0.000000 1.000000
vn 0.000000 0.000000 1.000000
vn -0.866025 0.000000 0.500000
vn -0.866025 0.000000 0.500000
vn -0.866025 0.000000 0.500000
vn -0.866025 0.000000 0.500000
vn -0.866025 0.000000 -0.500000
vn -0.866025 0.000000 -0.500000
vn -0.866025 0.000000 -0.500000
vn -0.866025 0.000000 -0.500000
vn 0.000000 1.000000 0.000000
vn 0.000000 1.000000 0.000000
vn 0.000000 1.000000 0.000000
vn 0.000000 1.000000 0.000000
vn 0.000000 1.000000 0.000000
vn 0.000000 1.000000 0.000000
vn 0.000000 1.000000 0.000000
vn 0.000000 1.000000 0.000000
vn 0.000000 1.000000 0.000000
vn 0.000000 1.000000 0.000000
vn 0.000000 1.000000 0.000000
vn 0.000000 1.000000 0.000000
vn 0.000000 1.000000 0.000000
vn 0.000000 1.000000 0.000000
vn 0.000000 1.000000 0.000000
vn 0.000000 1.000000 0.000000
vn 0.000000 1.000000 0.000000
vn 0.000000 1.000000 0.000000
vn 0.000000 -1.000000 0.000000
vn 0.000000 -1.000000 0.000000
vn 0.000000 -1.000000 0.000000
vn 0.000000 -1.000000 0.000000
vn 0.000000 -1.000000 0.000000
vn 0.000000 -1.000000 0.000000
vn 0.000000 -1.000000 0.000000
vn 0.000000 -1.000000 0.000000
vn 0.000000 -1.000000 0.000000
vn 0.000000 -1.000000 0.000000
vn 0.000000 -1.000000 0.000000
vn 0.000000 -1.000000 0.000000
vn 0.000000 -1.000000 0.000000
vn 0.000000 -1.000000 0.000000
vn 0.000000 -1.000000 0.000000
vn 0.000000 -1.000000 0.000000
vn 0.000000 -1.000000 0.000000
vn 0.000000 -1.000000 0.000000
vn 0.000000 1.000000 0.000000
vn 0.000000 1.000000 0.000000
vn 0.000000 1.000000 0.000000
vn 0.000000 1.000000 0.000000
vn 1.000000 0.000000 0.000000
vn 1.000000 0.000000 0.000000
vn 1.000000 0.000000 0.000000
vn 1.000000 0.000000 0.000000
vn 0.000000 0.000000 -1.000000
vn 0.000000 0.000000 -1.000000
vn 0.000000 0.000000 -1.000000
vn 0.000000 0.000000 -1.000000
vn -1.000000 0.000000 0.000000
vn -1.000000 0.000000 0.000000
vn -1.000000 0.000000 0.000000
vn -1.000000 0.000000 0.000000
vn 0.000000 -1.000000 0.000000
vn 0.000000 -1.000000 0.000000
vn 0.000000 -1.000000 0.000000
vn 0.000000 -1.000000 0.000000
vn -0.192387 0.962276 0.192386
vn -0.192387 0.962276 0.192386
vn -0.192387 0.962276 0.192386
vn -0.192387 0.962276 -0.192387
vn -0.192387 0.962276 -0.192387
vn -0.192387 0.962276 -0.192387
vn -0.192387 -0.962276 0.192387
vn -0.192387 -0.962276 0.192387
vn -0.192387 -0.962276 0.192387
vn -0.192387 -0.962276 -0.192386
vn -0.192387 -0.962276 -0.192386
vn -0.192387 -0.962276 -0.192386
vn 0.192387 0.962276 0.192386
vn 0.192387 0.962276 0.192386
vn 0.192387 0.962276 0.192386
vn 0.192387 0.962276 -0.192387
vn 0.192387 0.962276 -0.192387
vn 0.192387 0.962276 -0.192387
vn 0.192387 -0.962276 0.192387
vn 0.192387 -0.962276 0.192387
vn 0.192387 -0.962276 0.192387
vn 0.192387 -0.962276 -0.192386
vn 0.192387 -0.962276 -0.192386
vn 0.192387 -0.962276 -0.192386
vn -0.707107 0.000000 0.707107
vn -0.707107 0.000000 0.707107
vn -0.707107 0.000000 0.707107
vn -0.707107 0.000000 0.707107
vn -0.196049 0.980594 0.000000
vn -0.196049 0.980594 0.000000
vn -0.196049 0.980594 0.000000
vn -0.196049 0.980594 0.000000
vn -0.707107 0.000000 -0.707107
vn -0.707107 0.000000 -0.707107
vn -0.707107 0.000000 -0.707107
vn -0.707107 0.000000 -0.707107
vn -0.196049 -0.980594 -0.000000
vn -0.196049 -0.980594 -0.000000
vn -0.196049 -0.980594 -0.000000
vn -0.196049 -0.980594 -0.000000
vn 0.000000 -0.980594 0.196049
vn 0.000000 -0.980594 0.196049
vn 0.000000 -0.980594 0.196049
vn 0.000000 -0.980594 0.196049
vn 0.000000 -0.980594 -0.196049
vn 0.000000 -0.980594 -0.196049
vn 0.000000 -0.980594 -0.196049
vn 0.000000 -0.980594 -0.196049
vn 0.196049 -0.980594 0.000000
vn 0.196049 -0.980594 0.000000
vn 0.196049 -0.980594 0.000000
vn 0.196049 -0.980594 0.000000
vn 0.707107 0.000000 0.707107
vn 0.707107 0.000000 0.707107
vn 0.707107 0.000000 0.707107
vn 0.707107 0.000000 0.707107
vn 0.707107 0.000000 -0.707107
vn 0.707107 0.000000 -0.707107
vn 0.707107 0.000000 -0.707107
vn 0.707107 0.000000 -0.707107
vn 0.196049 0.980594 0.000000
vn 0.196049 0.980594 0.000000
vn 0.196049 0.980594 0.000000
vn 0.196049 0.980594 0.000000
vn 0.000000 0.980594 0.196049
vn 0.000000 0.980594 0.196049
vn 0.000000 0.980594 0.196049
vn 0.000000 0.980594 0.196049
vn 0.000000 0.980594 -0.196049
vn 0.000000 0.980594 -0.196049
vn 0.000000 0.980594 -0.196049
vn 0.000000 0.980594 -0.196049
vn 0.000000 0.000000 1.000000
vn 0.000000 0.000000 1.000000
vn 0.000000 0.000000 1.000000
vn 0.000000 0.000000 1.000000
s off
g boton
usemtl lambert2SG
f 1/1/1 2/2/2 11/109/3 10/101/4
f 2/2/5 3/5/6 12/108/7 11/109/8
f 3/5/9 4/7/10 13/107/11 12/108/12
f 4/7/13 5/9/14 14/106/15 13/107/16
f 5/9/17 6/11/18 15/105/19 14/106/20
f 6/11/21 7/13/22 16/104/23 15/105/24
f 7/13/25 8/15/26 17/103/27 16/104/28
f 8/15/29 9/17/30 18/102/31 17/103/32
f 9/17/33 1/1/34 10/101/35 18/102/36
f 2/2/37 1/1/38 19/19/39
f 3/5/40 2/2/41 19/19/42
f 4/7/43 3/5/44 19/19/45
f 5/9/46 4/7/47 19/19/48
f 6/11/49 5/9/50 19/19/51
f 7/13/52 6/11/53 19/19/54
f 8/15/55 7/13/56 19/19/57
f 9/17/58 8/15/59 19/19/60
f 1/1/61 9/17/62 19/19/63
f 10/4/64 11/3/65 20/20/66
f 11/3/67 12/6/68 20/20/69
f 12/6/70 13/8/71 20/20/72
f 13/8/73 14/10/74 20/20/75
f 14/10/76 15/12/77 20/20/78
f 15/12/79 16/14/80 20/20/81
f 16/14/82 17/16/83 20/20/84
f 17/16/85 18/18/86 20/20/87
f 18/18/88 10/4/89 20/20/90
f 21/21/91 22/22/92 28/133/93 27/128/94
f 22/22/95 23/25/96 29/132/97 28/133/98
f 23/25/99 24/27/100 30/131/101 29/132/102
f 24/27/103 25/29/104 31/130/105 30/131/106
f 25/29/107 26/31/108 32/129/109 31/130/110
f 26/31/111 21/21/112 27/128/113 32/129/114
f 22/22/115 21/21/116 33/33/117
f 23/25/118 22/22/119 33/33/120
f 24/27/121 23/25/122 33/33/123
f 25/29/124 24/27/125 33/33/126
f 26/31/127 25/29/128 33/33/129
f 21/21/130 26/31/131 33/33/132
f 27/24/133 28/23/134 34/34/135
f 28/23/136 29/26/137 34/34/138
f 29/26/139 30/28/140 34/34/141
f 30/28/142 31/30/143 34/34/144
f 31/30/145 32/32/146 34/34/147
f 32/32/148 27/24/149 34/34/150
f 35/35/151 36/36/152 42/127/153 41/122/154
f 36/36/155 37/39/156 43/126/157 42/127/158
f 37/39/159 38/41/160 44/125/161 43/126/162
f 38/41/163 39/43/164 45/124/165 44/125/166
f 39/43/167 40/45/168 46/123/169 45/124/170
f 40/45/171 35/35/172 41/122/173 46/123/174
f 36/36/175 35/35/176 47/47/177
f 37/39/178 36/36/179 47/47/180
f 38/41/181 37/39/182 47/47/183
f 39/43/184 38/41/185 47/47/186
f 40/45/187 39/43/188 47/47/189
f 35/35/190 40/45/191 47/47/192
f 41/38/193 42/37/194 48/48/195
f 42/37/196 43/40/197 48/48/198
f 43/40/199 44/42/200 48/48/201
f 44/42/202 45/44/203 48/48/204
f 45/44/205 46/46/206 48/48/207
f 46/46/208 41/38/209 48/48/210
f 49/49/211 50/50/212 56/121/213 55/116/214
f 50/50/215 51/53/216 57/120/217 56/121/218
f 51/53/219 52/55/220 58/119/221 57/120/222
f 52/55/223 53/57/224 59/118/225 58/119/226
f 53/57/227 54/59/228 60/117/229 59/118/230
f 54/59/231 49/49/232 55/116/233 60/117/234
f 50/50/235 49/49/236 61/61/237
f 51/53/238 50/50/239 61/61/240
f 52/55/241 51/53/242 61/61/243
f 53/57/244 52/55/245 61/61/246
f 54/59/247 53/57/248 61/61/249
f 49/49/250 54/59/251 61/61/252
f 55/52/253 56/51/254 62/62/255
f 56/51/256 57/54/257 62/62/258
f 57/54/259 58/56/260 62/62/261
f 58/56/262 59/58/263 62/62/264
f 59/58/265 60/60/266 62/62/267
f 60/60/268 55/52/269 62/62/270
f 63/63/271 64/64/272 70/115/273 69/110/274
f 64/64/275 65/67/276 71/114/277 70/115/278
f 65/67/279 66/69/280 72/113/281 71/114/282
f 66/69/283 67/71/284 73/112/285 72/113/286
f 67/71/287 68/73/288 74/111/289 73/112/290
f 68/73/291 63/63/292 69/110/293 74/111/294
f 64/64/295 63/63/296 75/75/297
f 65/67/298 64/64/299 75/75/300
f 66/69/301 65/67/302 75/75/303
f 67/71/304 66/69/305 75/75/306
f 68/73/307 67/71/308 75/75/309
f 63/63/310 68/73/311 75/75/312
f 69/66/313 70/65/314 76/76/315
f 70/65/316 71/68/317 76/76/318
f 71/68/319 72/70/320 76/76/321
f 72/70/322 73/72/323 76/76/324
f 73/72/325 74/74/326 76/76/327
f 74/74/328 69/66/329 76/76/330
f 91/77/331 93/78/332 80/79/333 78/80/334
f 97/81/335 99/141/336 94/83/337 90/145/338
f 98/140/339 86/147/340 81/87/341 92/144/342
f 79/89/343 82/150/344 88/91/345 84/148/346
f 85/93/347 87/94/348 100/95/349 96/96/350
f 77/134/351 78/80/352 79/151/353
f 80/79/354 81/149/355 82/90/356
f 83/98/357 84/92/358 85/93/359
f 86/86/360 87/94/361 88/146/362
f 89/99/363 90/84/364 91/77/365
f 92/88/366 93/78/367 94/143/368
f 95/137/369 96/96/370 97/142/371
f 98/85/372 99/82/373 100/95/374
f 83/139/375 77/97/376 79/89/377 84/148/378
f 78/80/379 80/79/380 82/90/381 79/151/382
f 81/87/383 86/147/384 88/91/385 82/150/386
f 87/94/387 85/93/388 84/92/389 88/146/390
f 95/137/391 83/98/392 85/93/393 96/96/394
f 86/86/395 98/85/396 100/95/397 87/94/398
f 99/82/399 97/142/400 96/96/401 100/95/402
f 89/135/403 95/100/404 97/81/405 90/145/406
f 98/140/407 92/144/408 94/83/409 99/141/410
f 93/78/411 91/77/412 90/84/413 94/143/414
f 77/134/415 89/99/416 91/77/417 78/80/418
f 92/88/419 81/149/420 80/79/421 93/78/422
f 83/139/423 95/138/424 89/136/425 77/97/426
