# This file uses centimeters as units for non-parametric coordinates.

mtllib puerta1abierta.mtl
g default
v 1.061324 0.000000 0.428294
v 1.935412 0.000000 0.428294
v 1.061324 0.946493 0.428294
v 1.935412 0.946493 0.428294
v 1.061324 0.946493 -0.426793
v 1.935412 0.946493 -0.426793
v 1.061324 0.000000 -0.426793
v 1.935412 0.000000 -0.426793
v 0.970808 0.946493 0.516842
v 2.025927 0.946493 0.516842
v 2.025927 0.946493 -0.515341
v 0.970808 0.946493 -0.515341
v 0.970808 1.002035 0.516842
v 2.025927 1.002035 0.516842
v 2.025927 1.002035 -0.515341
v 0.970808 1.002035 -0.515341
v 1.026429 1.002035 0.462430
v 1.970307 1.002035 0.462430
v 1.970307 1.002035 -0.460929
v 1.026429 1.002035 -0.460929
v 1.026429 3.374756 0.462430
v 1.970307 3.374756 0.462430
v 1.970307 3.374756 -0.460929
v 1.026429 3.374756 -0.460929
v 0.944564 3.450711 0.542516
v 2.052172 3.450711 0.542516
v 2.052172 3.450711 -0.541015
v 0.944564 3.450711 -0.541015
v 0.896485 3.450711 0.589548
v 2.100250 3.450711 0.589548
v 2.100250 3.450711 -0.588047
v 0.896485 3.450711 -0.588047
v 0.896485 3.483156 0.589548
v 2.100250 3.483156 0.589548
v 2.100250 3.483156 -0.588047
v 0.896485 3.483156 -0.588047
v 0.896485 3.663604 0.589548
v 2.100250 3.663604 0.589548
v 2.100250 3.663604 -0.588047
v 0.896485 3.663604 -0.588047
v -1.947554 0.000000 0.428294
v -1.073467 0.000000 0.428294
v -1.947554 0.946493 0.428294
v -1.073467 0.946493 0.428294
v -1.947554 0.946493 -0.426793
v -1.073467 0.946493 -0.426793
v -1.947554 0.000000 -0.426793
v -1.073467 0.000000 -0.426793
v -2.038070 0.946493 0.516842
v -0.982950 0.946493 0.516842
v -0.982950 0.946493 -0.515341
v -2.038070 0.946493 -0.515341
v -2.038070 1.002035 0.516842
v -0.982950 1.002035 0.516842
v -0.982950 1.002035 -0.515341
v -2.038070 1.002035 -0.515341
v -1.982449 1.002035 0.462430
v -1.038571 1.002035 0.462430
v -1.038571 1.002035 -0.460929
v -1.982449 1.002035 -0.460929
v -1.982449 3.374756 0.462430
v -1.038571 3.374756 0.462430
v -1.038571 3.374756 -0.460929
v -1.982449 3.374756 -0.460929
v -2.064314 3.450711 0.542516
v -0.956706 3.450711 0.542516
v -0.956706 3.450711 -0.541015
v -2.064314 3.450711 -0.541015
v -2.112392 3.450711 0.589548
v -0.908628 3.450711 0.589548
v -0.908628 3.450711 -0.588047
v -2.112392 3.450711 -0.588047
v -2.112392 3.483156 0.589548
v -0.908628 3.483156 0.589548
v -0.908628 3.483156 -0.588047
v -2.112392 3.483156 -0.588047
v -2.112392 3.663604 0.589548
v -0.908628 3.663604 0.589548
v -0.908628 3.663604 -0.588047
v -2.112392 3.663604 -0.588047
v 1.848413 4.694314 0.589548
v 1.848413 4.694314 -0.588047
v 0.799774 4.195940 -0.588047
v 0.799774 4.195940 0.589548
v 0.714687 5.542108 0.589548
v 0.714687 5.542108 -0.588047
v 0.371773 4.291361 -0.588047
v 0.371773 4.291361 0.589548
v -0.726829 5.542108 0.589548
v -0.726829 5.542108 -0.588047
v -0.383915 4.291361 -0.588047
v -0.383915 4.291361 0.589548
v -1.860556 4.694314 0.589548
v -1.860556 4.694314 -0.588047
v -0.811916 4.195940 -0.588047
v -0.811916 4.195940 0.589548
vt 0.185193 0.732456
vt 0.417304 0.088386
vt 0.522720 0.081249
vt 0.099040 0.918755
vt 0.243474 0.667956
vt 0.317691 0.081250
vt 0.475575 0.028811
vt 0.040768 0.983264
vt 0.516552 0.087284
vt 0.105074 0.912586
vt 0.311522 0.087285
vt 0.249510 0.661788
vt 0.516553 0.091070
vt 0.105074 0.908801
vt 0.311521 0.091070
vt 0.249510 0.658003
vt 0.520344 0.094777
vt 0.101366 0.905010
vt 0.315312 0.094778
vt 0.245802 0.654212
vt 0.520364 0.256482
vt 0.101356 0.743306
vt 0.315307 0.256483
vt 0.245816 0.492507
vt 0.514786 0.264005
vt 0.106814 0.735695
vt 0.309728 0.264005
vt 0.251275 0.484897
vt 0.511510 0.267211
vt 0.110019 0.732418
vt 0.306451 0.267211
vt 0.254480 0.481620
vt 0.511510 0.269422
vt 0.110019 0.730207
vt 0.306451 0.269422
vt 0.254481 0.479409
vt 0.511512 0.281720
vt 0.110018 0.717909
vt 0.306451 0.281720
vt 0.254482 0.467111
vt 0.098987 0.016736
vt 0.417304 0.088386
vt 0.185250 0.081241
vt 0.317660 0.081275
vt 0.040716 0.081245
vt 0.522750 0.081256
vt 0.243531 0.016741
vt 0.475575 0.028811
vt 0.179215 0.087410
vt 0.311492 0.087310
vt 0.516581 0.087291
vt 0.034681 0.087414
vt 0.179215 0.091195
vt 0.311493 0.091096
vt 0.516581 0.091076
vt 0.034682 0.091199
vt 0.182922 0.094986
vt 0.315284 0.094803
vt 0.520372 0.094784
vt 0.038390 0.094990
vt 0.182908 0.256691
vt 0.315304 0.256508
vt 0.520367 0.256489
vt 0.038399 0.256694
vt 0.177450 0.264301
vt 0.309726 0.264031
vt 0.514787 0.264011
vt 0.032942 0.264305
vt 0.174244 0.267577
vt 0.306450 0.267237
vt 0.511511 0.267217
vt 0.029737 0.267582
vt 0.174244 0.269788
vt 0.306450 0.269448
vt 0.511511 0.269428
vt 0.029737 0.269793
vt 0.174243 0.282086
vt 0.306452 0.281746
vt 0.511510 0.281726
vt 0.029738 0.282091
vt 0.576396 0.351956
vt 0.323612 0.351965
vt 0.254485 0.430238
vt 0.504925 0.318000
vt 0.499138 0.409745
vt 0.400875 0.409745
vt 0.254488 0.400353
vt 0.475757 0.324507
vt 0.400896 0.409757
vt 0.499117 0.409748
vt 0.254492 0.348852
vt 0.424256 0.324514
vt 0.323624 0.351988
vt 0.576384 0.351972
vt 0.254495 0.318967
vt 0.395086 0.318014
vt 0.475579 0.088382
vt 0.377223 0.016762
vt 0.582323 0.016753
vt 0.417300 0.028815
vt 0.475579 0.088382
vt 0.582283 0.016736
vt 0.377263 0.016747
vt 0.417300 0.028815
vt 0.174240 0.318960
vt 0.388490 0.281736
vt 0.504918 0.318005
vt 0.254498 0.282093
vt 0.029742 0.354402
vt 0.593549 0.281728
vt 0.109997 0.354397
vt 0.109993 0.282087
vt 0.174237 0.348845
vt 0.475749 0.324507
vt 0.029747 0.450882
vt 0.110003 0.450877
vt 0.174232 0.400346
vt 0.424248 0.324506
vt 0.029753 0.549123
vt 0.110008 0.549118
vt 0.174230 0.430231
vt 0.395079 0.318002
vt 0.029759 0.645603
vt 0.110014 0.645598
vt 0.174227 0.467104
vt 0.388489 0.281722
vt 0.029763 0.717913
vt 0.593550 0.281710
vt 0.593549 0.269430
vt 0.254499 0.269795
vt 0.388489 0.269438
vt 0.109992 0.269789
vt 0.593549 0.267219
vt 0.254499 0.267584
vt 0.388488 0.267227
vt 0.109992 0.267578
vt 0.590273 0.264014
vt 0.251294 0.264307
vt 0.385211 0.264022
vt 0.106786 0.264301
vt 0.584694 0.256491
vt 0.245837 0.256696
vt 0.379631 0.256500
vt 0.101328 0.256691
vt 0.584699 0.094786
vt 0.245851 0.094991
vt 0.379611 0.094795
vt 0.101318 0.094986
vt 0.588489 0.091078
vt 0.249560 0.091201
vt 0.383401 0.091087
vt 0.105026 0.091195
vt 0.588490 0.087293
vt 0.249560 0.087416
vt 0.383400 0.087301
vt 0.105026 0.087410
vt 0.582321 0.081258
vt 0.243526 0.081246
vt 0.377231 0.081267
vt 0.098991 0.081241
vt 0.522752 0.016751
vt 0.040712 0.016740
vt 0.185256 0.016736
vt 0.317652 0.016770
vt 0.388489 0.269424
vt 0.029764 0.730211
vt 0.593548 0.269412
vt 0.174225 0.479402
vt 0.388489 0.267213
vt 0.029764 0.732422
vt 0.593548 0.267201
vt 0.174225 0.481613
vt 0.385213 0.264007
vt 0.032969 0.735699
vt 0.590271 0.263996
vt 0.177430 0.484890
vt 0.379634 0.256485
vt 0.038428 0.743309
vt 0.584691 0.256474
vt 0.182888 0.492502
vt 0.379639 0.094780
vt 0.038437 0.905014
vt 0.584670 0.094769
vt 0.182873 0.654206
vt 0.383430 0.091072
vt 0.034729 0.908805
vt 0.588461 0.091061
vt 0.179165 0.657997
vt 0.383430 0.087287
vt 0.034730 0.912590
vt 0.588460 0.087275
vt 0.179165 0.661782
vt 0.377261 0.081252
vt 0.040765 0.918759
vt 0.582291 0.081241
vt 0.185199 0.667951
vt 0.317692 0.016745
vt 0.243468 0.732461
vt 0.099044 0.983260
vt 0.522712 0.016744
vn 0.000000 0.000000 1.000000
vn 0.000000 0.000000 1.000000
vn 0.000000 0.000000 1.000000
vn 0.000000 0.000000 1.000000
vn 0.000000 0.000000 -1.000000
vn 0.000000 0.000000 -1.000000
vn 0.000000 0.000000 -1.000000
vn 0.000000 0.000000 -1.000000
vn 0.000000 -1.000000 0.000000
vn 0.000000 -1.000000 0.000000
vn 0.000000 -1.000000 0.000000
vn 0.000000 -1.000000 0.000000
vn 1.000000 0.000000 0.000000
vn 1.000000 0.000000 0.000000
vn 1.000000 0.000000 0.000000
vn 1.000000 0.000000 0.000000
vn -1.000000 0.000000 0.000000
vn -1.000000 0.000000 0.000000
vn -1.000000 0.000000 0.000000
vn -1.000000 0.000000 0.000000
vn 0.000000 -1.000000 -0.000001
vn 0.000000 -1.000000 -0.000001
vn 0.000000 -1.000000 -0.000001
vn 0.000000 -1.000000 -0.000001
vn 0.000000 -1.000000 0.000000
vn 0.000000 -1.000000 0.000000
vn 0.000000 -1.000000 0.000000
vn 0.000000 -1.000000 0.000000
vn 0.000000 -1.000000 0.000001
vn 0.000000 -1.000000 0.000001
vn 0.000000 -1.000000 0.000001
vn 0.000000 -1.000000 0.000001
vn 0.000000 -1.000000 0.000000
vn 0.000000 -1.000000 0.000000
vn 0.000000 -1.000000 0.000000
vn 0.000000 -1.000000 0.000000
vn 0.000000 0.000000 1.000000
vn 0.000000 0.000000 1.000000
vn 0.000000 0.000000 1.000000
vn 0.000000 0.000000 1.000000
vn 1.000000 0.000000 0.000000
vn 1.000000 0.000000 0.000000
vn 1.000000 0.000000 0.000000
vn 1.000000 0.000000 0.000000
vn 0.000000 0.000000 -1.000000
vn 0.000000 0.000000 -1.000000
vn 0.000000 0.000000 -1.000000
vn 0.000000 0.000000 -1.000000
vn -1.000000 0.000000 0.000000
vn -1.000000 0.000000 0.000000
vn -1.000000 0.000000 0.000000
vn -1.000000 0.000000 0.000000
vn 0.000000 1.000000 0.000000
vn 0.000000 1.000000 0.000000
vn 0.000000 1.000000 0.000000
vn 0.000000 1.000000 0.000000
vn 0.000000 1.000000 0.000000
vn 0.000000 1.000000 0.000000
vn 0.000000 1.000000 0.000000
vn 0.000000 1.000000 0.000000
vn 0.000000 1.000000 -0.000001
vn 0.000000 1.000000 -0.000001
vn 0.000000 1.000000 -0.000001
vn 0.000000 1.000000 -0.000001
vn 0.000000 1.000000 0.000000
vn 0.000000 1.000000 0.000000
vn 0.000000 1.000000 0.000000
vn 0.000000 1.000000 0.000000
vn 0.000000 0.000000 1.000000
vn 0.000000 0.000000 1.000000
vn 0.000000 0.000000 1.000000
vn 0.000000 0.000000 1.000000
vn 1.000000 0.000000 0.000000
vn 1.000000 0.000000 0.000000
vn 1.000000 0.000000 0.000000
vn 1.000000 0.000000 0.000000
vn 0.000000 0.000000 -1.000000
vn 0.000000 0.000000 -1.000000
vn 0.000000 0.000000 -1.000000
vn 0.000000 0.000000 -1.000000
vn -1.000000 0.000000 0.000000
vn -1.000000 0.000000 0.000000
vn -1.000000 0.000000 0.000000
vn -1.000000 0.000000 0.000000
vn 0.000000 -0.725570 0.688148
vn 0.000000 -0.725570 0.688148
vn 0.000000 -0.725570 0.688148
vn 0.000000 -0.725570 0.688148
vn 0.680151 -0.733072 0.000000
vn 0.680151 -0.733072 0.000000
vn 0.680151 -0.733072 0.000000
vn 0.680151 -0.733072 0.000000
vn 0.000000 -0.725570 -0.688148
vn 0.000000 -0.725570 -0.688148
vn 0.000000 -0.725570 -0.688148
vn 0.000000 -0.725570 -0.688148
vn -0.680151 -0.733072 0.000000
vn -0.680151 -0.733072 0.000000
vn -0.680151 -0.733072 0.000000
vn -0.680151 -0.733072 0.000000
vn 0.000000 -1.000000 -0.000001
vn 0.000000 -1.000000 -0.000001
vn 0.000000 -1.000000 -0.000001
vn 0.000000 -1.000000 -0.000001
vn 0.000000 -1.000000 0.000000
vn 0.000000 -1.000000 0.000000
vn 0.000000 -1.000000 0.000000
vn 0.000000 -1.000000 0.000000
vn 0.000000 -1.000000 -0.000001
vn 0.000000 -1.000000 -0.000001
vn 0.000000 -1.000000 -0.000001
vn 0.000000 -1.000000 -0.000001
vn 0.000000 -1.000000 0.000000
vn 0.000000 -1.000000 0.000000
vn 0.000000 -1.000000 0.000000
vn 0.000000 -1.000000 0.000000
vn 0.000000 0.000000 1.000000
vn 0.000000 0.000000 1.000000
vn 0.000000 0.000000 1.000000
vn 0.000000 0.000000 1.000000
vn 1.000000 0.000000 0.000000
vn 1.000000 0.000000 0.000000
vn 1.000000 0.000000 0.000000
vn 1.000000 0.000000 0.000000
vn 0.000000 0.000000 -1.000000
vn 0.000000 0.000000 -1.000000
vn 0.000000 0.000000 -1.000000
vn 0.000000 0.000000 -1.000000
vn -1.000000 0.000000 0.000000
vn -1.000000 0.000000 0.000000
vn -1.000000 0.000000 0.000000
vn -1.000000 0.000000 0.000000
vn 0.000000 0.000000 1.000000
vn 0.000000 0.000000 1.000000
vn 0.000000 0.000000 1.000000
vn 0.000000 0.000000 1.000000
vn 1.000000 0.000000 0.000000
vn 1.000000 0.000000 0.000000
vn 1.000000 0.000000 0.000000
vn 1.000000 0.000000 0.000000
vn 0.000000 0.000000 -1.000000
vn 0.000000 0.000000 -1.000000
vn 0.000000 0.000000 -1.000000
vn 0.000000 0.000000 -1.000000
vn -1.000000 0.000000 0.000000
vn -1.000000 0.000000 0.000000
vn -1.000000 0.000000 0.000000
vn -1.000000 0.000000 0.000000
vn 0.000000 0.000000 1.000000
vn 0.000000 0.000000 1.000000
vn 0.000000 0.000000 1.000000
vn 0.000000 0.000000 1.000000
vn 0.000000 0.000000 -1.000000
vn 0.000000 0.000000 -1.000000
vn 0.000000 0.000000 -1.000000
vn 0.000000 0.000000 -1.000000
vn 0.000000 -1.000000 0.000000
vn 0.000000 -1.000000 0.000000
vn 0.000000 -1.000000 0.000000
vn 0.000000 -1.000000 0.000000
vn 1.000000 0.000000 0.000000
vn 1.000000 0.000000 0.000000
vn 1.000000 0.000000 0.000000
vn 1.000000 0.000000 0.000000
vn -1.000000 0.000000 0.000000
vn -1.000000 0.000000 0.000000
vn -1.000000 0.000000 0.000000
vn -1.000000 0.000000 0.000000
vn 0.000000 -1.000000 -0.000000
vn 0.000000 -1.000000 -0.000000
vn 0.000000 -1.000000 -0.000000
vn 0.000000 -1.000000 -0.000000
vn 0.000000 -1.000000 0.000000
vn 0.000000 -1.000000 0.000000
vn 0.000000 -1.000000 0.000000
vn 0.000000 -1.000000 0.000000
vn 0.000000 -1.000000 0.000001
vn 0.000000 -1.000000 0.000001
vn 0.000000 -1.000000 0.000001
vn 0.000000 -1.000000 0.000001
vn 0.000000 -1.000000 0.000000
vn 0.000000 -1.000000 0.000000
vn 0.000000 -1.000000 0.000000
vn 0.000000 -1.000000 0.000000
vn 0.000000 0.000000 1.000000
vn 0.000000 0.000000 1.000000
vn 0.000000 0.000000 1.000000
vn 0.000000 0.000000 1.000000
vn 1.000000 0.000000 0.000000
vn 1.000000 0.000000 0.000000
vn 1.000000 0.000000 0.000000
vn 1.000000 0.000000 0.000000
vn 0.000000 0.000000 -1.000000
vn 0.000000 0.000000 -1.000000
vn 0.000000 0.000000 -1.000000
vn 0.000000 0.000000 -1.000000
vn -1.000000 0.000000 0.000000
vn -1.000000 0.000000 0.000000
vn -1.000000 0.000000 0.000000
vn -1.000000 0.000000 0.000000
vn 0.000000 1.000000 -0.000001
vn 0.000000 1.000000 -0.000001
vn 0.000000 1.000000 -0.000001
vn 0.000000 1.000000 -0.000001
vn 0.000000 1.000000 0.000000
vn 0.000000 1.000000 0.000000
vn 0.000000 1.000000 0.000000
vn 0.000000 1.000000 0.000000
vn 0.000000 1.000000 -0.000001
vn 0.000000 1.000000 -0.000001
vn 0.000000 1.000000 -0.000001
vn 0.000000 1.000000 -0.000001
vn 0.000000 1.000000 0.000000
vn 0.000000 1.000000 0.000000
vn 0.000000 1.000000 0.000000
vn 0.000000 1.000000 0.000000
vn 0.000000 0.000000 1.000000
vn 0.000000 0.000000 1.000000
vn 0.000000 0.000000 1.000000
vn 0.000000 0.000000 1.000000
vn 1.000000 0.000000 0.000000
vn 1.000000 0.000000 0.000000
vn 1.000000 0.000000 0.000000
vn 1.000000 0.000000 0.000000
vn 0.000000 0.000000 -1.000000
vn 0.000000 0.000000 -1.000000
vn 0.000000 0.000000 -1.000000
vn 0.000000 0.000000 -1.000000
vn -1.000000 0.000000 0.000000
vn -1.000000 0.000000 0.000000
vn -1.000000 0.000000 0.000000
vn -1.000000 0.000000 0.000000
vn 0.000000 -0.725569 0.688149
vn 0.000000 -0.725569 0.688149
vn 0.000000 -0.725569 0.688149
vn 0.000000 -0.725569 0.688149
vn 0.680151 -0.733072 0.000000
vn 0.680151 -0.733072 0.000000
vn 0.680151 -0.733072 0.000000
vn 0.680151 -0.733072 0.000000
vn 0.000000 -0.725568 -0.688150
vn 0.000000 -0.725568 -0.688150
vn 0.000000 -0.725568 -0.688150
vn 0.000000 -0.725568 -0.688150
vn -0.680154 -0.733069 0.000000
vn -0.680154 -0.733069 0.000000
vn -0.680154 -0.733069 0.000000
vn -0.680154 -0.733069 0.000000
vn 0.000000 -1.000000 0.000002
vn 0.000000 -1.000000 0.000002
vn 0.000000 -1.000000 0.000002
vn 0.000000 -1.000000 0.000002
vn 0.000000 -1.000000 0.000000
vn 0.000000 -1.000000 0.000000
vn 0.000000 -1.000000 0.000000
vn 0.000000 -1.000000 0.000000
vn 0.000000 -1.000000 0.000001
vn 0.000000 -1.000000 0.000001
vn 0.000000 -1.000000 0.000001
vn 0.000000 -1.000000 0.000001
vn 0.000000 -1.000000 0.000000
vn 0.000000 -1.000000 0.000000
vn 0.000000 -1.000000 0.000000
vn 0.000000 -1.000000 0.000000
vn 0.000000 0.000000 1.000000
vn 0.000000 0.000000 1.000000
vn 0.000000 0.000000 1.000000
vn 0.000000 0.000000 1.000000
vn 1.000000 0.000000 0.000000
vn 1.000000 0.000000 0.000000
vn 1.000000 0.000000 0.000000
vn 1.000000 0.000000 0.000000
vn 0.000000 0.000000 -1.000000
vn 0.000000 0.000000 -1.000000
vn 0.000000 0.000000 -1.000000
vn 0.000000 0.000000 -1.000000
vn -1.000000 0.000000 0.000000
vn -1.000000 0.000000 0.000000
vn -1.000000 0.000000 0.000000
vn -1.000000 0.000000 0.000000
vn 0.000000 0.000000 1.000000
vn 0.000000 0.000000 1.000000
vn 0.000000 0.000000 1.000000
vn 0.000000 0.000000 1.000000
vn 1.000000 0.000000 0.000000
vn 1.000000 0.000000 0.000000
vn 1.000000 0.000000 0.000000
vn 1.000000 0.000000 0.000000
vn 0.000000 0.000000 -1.000000
vn 0.000000 0.000000 -1.000000
vn 0.000000 0.000000 -1.000000
vn 0.000000 0.000000 -1.000000
vn -1.000000 0.000000 0.000000
vn -1.000000 0.000000 0.000000
vn -1.000000 0.000000 0.000000
vn -1.000000 0.000000 0.000000
vn -0.804769 0.593588 0.000000
vn -0.804769 0.593588 0.000000
vn -0.971424 0.237351 0.000000
vn -0.971424 0.237351 0.000000
vn 0.000000 0.000000 -1.000000
vn 0.000000 0.000000 -1.000000
vn 0.000000 0.000000 -1.000000
vn 0.000000 0.000000 -1.000000
vn 0.767270 -0.641324 0.000000
vn 0.767270 -0.641324 0.000000
vn 0.983895 -0.178747 0.000000
vn 0.983895 -0.178747 0.000000
vn -0.000000 0.000000 1.000000
vn -0.000000 0.000000 1.000000
vn 0.000000 0.000000 1.000000
vn 0.000000 0.000000 1.000000
vn 0.971424 0.237351 0.000000
vn 0.971424 0.237351 0.000000
vn 0.804769 0.593588 0.000000
vn 0.804769 0.593588 0.000000
vn 0.000000 0.000000 -1.000000
vn 0.000000 0.000000 -1.000000
vn 0.000000 0.000000 -1.000000
vn 0.000000 0.000000 -1.000000
vn -0.983895 -0.178747 0.000000
vn -0.983895 -0.178747 0.000000
vn -0.767270 -0.641324 0.000000
vn -0.767270 -0.641324 0.000000
vn 0.000000 0.000000 1.000000
vn 0.000000 0.000000 1.000000
vn 0.000000 0.000000 1.000000
vn 0.000000 0.000000 1.000000
vn 0.312700 0.949852 0.000000
vn 0.312700 0.949852 0.000000
vn 0.000000 0.000000 -1.000000
vn 0.000000 0.000000 -1.000000
vn -0.080353 -0.996767 0.000000
vn -0.080353 -0.996767 0.000000
vn 0.000000 0.000000 1.000000
vn 0.000000 0.000000 1.000000
vn -0.312700 0.949852 0.000000
vn -0.312700 0.949852 0.000000
vn 0.000000 0.000000 -1.000000
vn 0.000000 0.000000 -1.000000
vn 0.080353 -0.996767 0.000000
vn 0.080353 -0.996767 0.000000
vn -0.000000 0.000000 1.000000
vn -0.000000 0.000000 1.000000
s off
g puerta1_abierta
usemtl lambert3SG
f 1/200/1 2/102/2 4/195/3 3/3/4
f 5/193/5 6/6/6 8/197/7 7/103/8
f 7/7/9 8/101/10 2/2/11 1/104/12
f 2/199/13 8/8/14 6/194/15 4/4/16
f 7/198/17 1/1/18 3/196/19 5/5/20
f 3/3/21 4/195/22 10/191/23 9/9/24
f 4/4/25 6/194/26 11/190/27 10/10/28
f 6/6/29 5/193/30 12/189/31 11/11/32
f 5/5/33 3/196/34 9/192/35 12/12/36
f 9/9/37 10/191/38 14/187/39 13/13/40
f 10/10/41 11/190/42 15/186/43 14/14/44
f 11/11/45 12/189/46 16/185/47 15/15/48
f 12/12/49 9/192/50 13/188/51 16/16/52
f 13/13/53 14/187/54 18/183/55 17/17/56
f 14/14/57 15/186/58 19/182/59 18/18/60
f 15/15/61 16/185/62 20/181/63 19/19/64
f 16/16/65 13/188/66 17/184/67 20/20/68
f 17/17/69 18/183/70 22/179/71 21/21/72
f 18/18/73 19/182/74 23/178/75 22/22/76
f 19/19/77 20/181/78 24/177/79 23/23/80
f 20/20/81 17/184/82 21/180/83 24/24/84
f 21/21/85 22/179/86 26/175/87 25/25/88
f 22/22/89 23/178/90 27/174/91 26/26/92
f 23/23/93 24/177/94 28/173/95 27/27/96
f 24/24/97 21/180/98 25/176/99 28/28/100
f 25/25/101 26/175/102 30/171/103 29/29/104
f 26/26/105 27/174/106 31/170/107 30/30/108
f 27/27/109 28/173/110 32/169/111 31/31/112
f 28/28/113 25/176/114 29/172/115 32/32/116
f 29/29/117 30/171/118 34/167/119 33/33/120
f 30/30/121 31/170/122 35/166/123 34/34/124
f 31/31/125 32/169/126 36/165/127 35/35/128
f 32/32/129 29/172/130 33/168/131 36/36/132
f 33/33/133 34/167/134 38/128/135 37/37/136
f 34/34/137 35/166/138 39/127/139 38/38/140
f 35/35/141 36/165/142 40/126/143 39/39/144
f 36/36/145 33/168/146 37/125/147 40/40/148
f 41/164/149 42/98/150 44/159/151 43/44/152
f 45/157/153 46/46/154 48/161/155 47/99/156
f 47/48/157 48/97/158 42/42/159 41/100/160
f 42/163/161 48/47/162 46/158/163 44/43/164
f 47/162/165 41/41/166 43/160/167 45/45/168
f 43/44/169 44/159/170 50/155/171 49/50/172
f 44/43/173 46/158/174 51/154/175 50/49/176
f 46/46/177 45/157/178 52/153/179 51/51/180
f 45/45/181 43/160/182 49/156/183 52/52/184
f 49/50/185 50/155/186 54/151/187 53/54/188
f 50/49/189 51/154/190 55/150/191 54/53/192
f 51/51/193 52/153/194 56/149/195 55/55/196
f 52/52/197 49/156/198 53/152/199 56/56/200
f 53/54/201 54/151/202 58/147/203 57/58/204
f 54/53/205 55/150/206 59/146/207 58/57/208
f 55/55/209 56/149/210 60/145/211 59/59/212
f 56/56/213 53/152/214 57/148/215 60/60/216
f 57/58/217 58/147/218 62/143/219 61/62/220
f 58/57/221 59/146/222 63/142/223 62/61/224
f 59/59/225 60/145/226 64/141/227 63/63/228
f 60/60/229 57/148/230 61/144/231 64/64/232
f 61/62/233 62/143/234 66/139/235 65/66/236
f 62/61/237 63/142/238 67/138/239 66/65/240
f 63/63/241 64/141/242 68/137/243 67/67/244
f 64/64/245 61/144/246 65/140/247 68/68/248
f 65/66/249 66/139/250 70/135/251 69/70/252
f 66/65/253 67/138/254 71/134/255 70/69/256
f 67/67/257 68/137/258 72/133/259 71/71/260
f 68/68/261 65/140/262 69/136/263 72/72/264
f 69/70/265 70/135/266 74/131/267 73/74/268
f 70/69/269 71/134/270 75/130/271 74/73/272
f 71/71/273 72/133/274 76/129/275 75/75/276
f 72/72/277 69/136/278 73/132/279 76/76/280
f 73/74/281 74/131/282 78/106/283 77/78/284
f 74/73/285 75/130/286 79/108/287 78/77/288
f 75/75/289 76/129/290 80/110/291 79/79/292
f 76/76/293 73/132/294 77/112/295 80/80/296
s 1
f 93/111/297 94/109/298 80/80/299 77/112/300
s 2
f 94/94/301 95/107/302 79/79/303 80/110/304
s 3
f 95/95/305 96/105/306 78/77/307 79/108/308
s 4
f 96/96/309 93/93/310 77/78/311 78/106/312
s 1
f 38/38/313 39/127/314 82/123/315 81/124/316
s 2
f 39/39/317 40/126/318 83/122/319 82/82/320
s 3
f 40/40/321 37/125/322 84/121/323 83/83/324
s 4
f 37/37/325 38/128/326 81/81/327 84/84/328
s 1
f 81/124/316 82/123/315 86/119/329 85/120/330
s 2
f 82/82/320 83/122/319 87/118/331 86/86/332
s 3
f 83/83/324 84/121/323 88/117/333 87/87/334
s 4
f 84/84/328 81/81/327 85/85/335 88/88/336
s 1
f 85/120/330 86/119/329 90/115/337 89/116/338
s 2
f 86/86/332 87/118/331 91/114/339 90/90/340
s 3
f 87/87/334 88/117/333 92/113/341 91/91/342
s 4
f 88/88/336 85/85/335 89/89/343 92/92/344
s 1
f 89/116/338 90/115/337 94/109/298 93/111/297
s 2
f 90/90/340 91/114/339 95/107/302 94/94/301
s 3
f 91/91/342 92/113/341 96/105/306 95/95/305
s 4
f 92/92/344 89/89/343 93/93/310 96/96/309
