# This file uses centimeters as units for non-parametric coordinates.

mtllib espadad xd.mtl
g default
v 0.000000 -0.180426 -0.042972
v -0.042972 -0.180426 -0.000000
v -0.000000 -0.180426 0.042972
v 0.042972 -0.180426 0.000000
v 0.000000 -0.155609 -0.042972
v -0.042972 -0.155609 -0.000000
v -0.000000 -0.155609 0.042972
v 0.042972 -0.155609 0.000000
v 0.000000 -0.180426 0.000000
v 0.000000 -0.125654 -0.042972
v -0.042972 -0.125654 -0.000000
v -0.000000 -0.125654 0.042972
v 0.042972 -0.125654 0.000000
v 0.000000 -0.155609 -0.048460
v -0.048460 -0.155609 -0.000000
v -0.048460 -0.125654 -0.000000
v 0.000000 -0.125654 -0.048460
v -0.000000 -0.155609 0.048460
v -0.000000 -0.125654 0.048460
v 0.048460 -0.155609 0.000000
v 0.048460 -0.125654 0.000000
v 0.000000 -0.112090 -0.038529
v -0.038529 -0.112090 -0.000000
v -0.000000 -0.112090 0.038529
v 0.038529 -0.112090 0.000000
v 0.000000 -0.090843 -0.042924
v -0.042924 -0.090843 -0.000000
v -0.000000 -0.090843 0.042924
v 0.042924 -0.090843 0.000000
v 0.000000 -0.056498 -0.035929
v -0.035929 -0.056498 -0.000000
v -0.000000 -0.056498 0.035929
v 0.035929 -0.056498 0.000000
v 0.000000 -0.018883 -0.035929
v -0.035929 -0.018883 -0.000000
v -0.000000 -0.018883 0.035929
v 0.035929 -0.018883 0.000000
v 0.000000 0.505255 -0.000850
v -0.000850 0.505255 -0.000000
v -0.000000 0.505255 0.000850
v 0.000850 0.505255 0.000000
v 0.000000 -0.018883 -0.035929
v -0.066348 -0.018883 -0.000000
v -0.001570 0.505255 -0.000000
v 0.000000 0.505255 -0.000850
v -0.000000 -0.018883 0.035929
v -0.000000 0.505255 0.000850
v 0.066348 -0.018883 0.000000
v 0.001570 0.505255 0.000000
vt 0.875483 0.475209
vt 0.899062 0.451629
vt 0.899062 0.475209
vt 0.922642 0.475209
vt 0.899062 0.498789
vt 0.700503 0.454641
vt 0.676924 0.478221
vt 0.673912 0.478221
vt 0.700503 0.451629
vt 0.700503 0.501801
vt 0.700503 0.504812
vt 0.724083 0.478221
vt 0.727095 0.478221
vt 0.736100 0.478221
vt 0.759680 0.501801
vt 0.759680 0.504812
vt 0.733088 0.478221
vt 0.783260 0.478221
vt 0.786272 0.478221
vt 0.759680 0.454641
vt 0.759680 0.451629
vt 0.292137 0.213838
vt 0.375821 0.297522
vt 0.375821 0.368372
vt 0.292137 0.213838
vt 0.459504 0.213838
vt 0.459504 0.213838
vt 0.375821 0.130154
vt 0.375821 0.059304
vt 0.929578 0.452957
vt 0.930045 0.452491
vt 0.930045 0.452491
vt 0.929578 0.453352
vt 0.929111 0.452491
vt 0.929578 0.452024
vt 0.929578 0.451629
vt 0.929111 0.452491
vt 0.203438 0.998008
vt 0.167031 0.998008
vt 0.202576 0.001992
vt 0.203438 0.001992
vt 0.239845 0.998008
vt 0.204299 0.001992
vt 0.233398 0.001992
vt 0.269805 0.001992
vt 0.269805 0.998008
vt 0.268943 0.998008
vt 0.306212 0.001992
vt 0.270666 0.998008
vt 0.792265 0.451629
vt 0.815845 0.451629
vt 0.815845 0.498789
vt 0.792265 0.498789
vt 0.839425 0.451629
vt 0.839425 0.498789
vt 0.815845 0.451629
vt 0.815845 0.498789
vt 0.845894 0.451629
vt 0.869474 0.451629
vt 0.869474 0.498789
vt 0.845894 0.498789
vt 0.581448 0.451629
vt 0.608040 0.451629
vt 0.608040 0.508551
vt 0.581448 0.508551
vt 0.634631 0.451629
vt 0.634631 0.508551
vt 0.608040 0.451629
vt 0.608040 0.508551
vt 0.640625 0.451629
vt 0.667216 0.451629
vt 0.667216 0.508551
vt 0.640625 0.508551
vt 0.451999 0.451629
vt 0.475579 0.451629
vt 0.475579 0.477406
vt 0.454437 0.477406
vt 0.499159 0.451629
vt 0.496721 0.477406
vt 0.475579 0.517780
vt 0.452025 0.517780
vt 0.475579 0.451629
vt 0.475579 0.477406
vt 0.499132 0.517780
vt 0.475579 0.583047
vt 0.455863 0.583047
vt 0.475579 0.517780
vt 0.495294 0.583047
vt 0.475579 0.654526
vt 0.455863 0.654526
vt 0.475579 0.583047
vt 0.495294 0.654526
vt 0.475579 0.654526
vt 0.505628 0.451629
vt 0.529208 0.451629
vt 0.529208 0.477406
vt 0.508066 0.477406
vt 0.529208 0.517780
vt 0.505654 0.517780
vt 0.529208 0.583047
vt 0.509492 0.583047
vt 0.529208 0.654526
vt 0.509492 0.654526
vn -0.707107 0.000000 -0.707107
vn -0.707107 0.000000 -0.707107
vn -0.707107 0.000000 -0.707107
vn -0.707107 0.000000 -0.707107
vn -0.707107 0.000000 0.707107
vn -0.707107 0.000000 0.707107
vn -0.707107 0.000000 0.707107
vn -0.707107 0.000000 0.707107
vn 0.707107 0.000000 0.707107
vn 0.707107 0.000000 0.707107
vn 0.707107 0.000000 0.707107
vn 0.707107 0.000000 0.707107
vn 0.707107 0.000000 -0.707107
vn 0.707107 0.000000 -0.707107
vn 0.707107 0.000000 -0.707107
vn 0.707107 0.000000 -0.707107
vn 0.000000 -1.000000 0.000000
vn 0.000000 -1.000000 0.000000
vn 0.000000 -1.000000 0.000000
vn 0.000000 -1.000000 0.000000
vn 0.000000 -1.000000 0.000000
vn -0.707107 0.000000 -0.707107
vn -0.707107 0.000000 -0.707107
vn -0.707107 0.000000 -0.707107
vn -0.707107 0.000000 -0.707107
vn -0.707107 0.000000 0.707107
vn -0.707107 0.000000 0.707107
vn -0.707107 0.000000 0.707107
vn -0.707107 0.000000 0.707107
vn 0.707107 0.000000 0.707107
vn 0.707107 0.000000 0.707107
vn 0.707107 0.000000 0.707107
vn 0.707107 0.000000 0.707107
vn 0.707107 0.000000 -0.707107
vn 0.707107 0.000000 -0.707107
vn 0.707107 0.000000 -0.707107
vn 0.707107 0.000000 -0.707107
vn 0.000000 -1.000000 0.000000
vn 0.000000 -1.000000 0.000000
vn 0.000000 -1.000000 0.000000
vn 0.000000 -1.000000 0.000000
vn 0.000000 1.000000 -0.000000
vn 0.000000 1.000000 -0.000000
vn 0.000000 1.000000 -0.000000
vn 0.000000 1.000000 -0.000000
vn 0.000000 -1.000000 0.000000
vn 0.000000 -1.000000 0.000000
vn 0.000000 -1.000000 0.000000
vn 0.000000 -1.000000 0.000000
vn 0.000000 1.000000 -0.000001
vn 0.000000 1.000000 -0.000001
vn 0.000000 1.000000 -0.000001
vn 0.000000 1.000000 -0.000001
vn 0.000000 -1.000000 -0.000000
vn 0.000000 -1.000000 -0.000000
vn 0.000000 -1.000000 -0.000000
vn 0.000000 -1.000000 -0.000000
vn 0.000000 1.000000 -0.000000
vn 0.000000 1.000000 -0.000000
vn 0.000000 1.000000 -0.000000
vn 0.000000 1.000000 -0.000000
vn 0.000000 -1.000000 0.000000
vn 0.000000 -1.000000 0.000000
vn 0.000000 -1.000000 0.000000
vn 0.000000 -1.000000 0.000000
vn 0.000000 1.000000 0.000000
vn 0.000000 1.000000 0.000000
vn 0.000000 1.000000 0.000000
vn 0.000000 1.000000 0.000000
vn -0.688873 0.225626 -0.688873
vn -0.688873 0.225626 -0.688873
vn -0.688873 0.225626 -0.688873
vn -0.688873 0.225626 -0.688873
vn -0.688873 0.225626 0.688873
vn -0.688873 0.225626 0.688873
vn -0.688873 0.225626 0.688873
vn -0.688873 0.225626 0.688873
vn 0.688873 0.225626 0.688873
vn 0.688873 0.225626 0.688873
vn 0.688873 0.225626 0.688873
vn 0.688873 0.225626 0.688873
vn 0.688873 0.225626 -0.688873
vn 0.688873 0.225626 -0.688873
vn 0.688873 0.225626 -0.688873
vn 0.688873 0.225626 -0.688873
vn -0.699663 -0.144717 -0.699663
vn -0.699663 -0.144717 -0.699663
vn -0.699663 -0.144717 -0.699663
vn -0.699663 -0.144717 -0.699663
vn -0.699663 -0.144717 0.699663
vn -0.699663 -0.144717 0.699663
vn -0.699663 -0.144717 0.699663
vn -0.699663 -0.144717 0.699663
vn 0.699663 -0.144717 0.699663
vn 0.699663 -0.144717 0.699663
vn 0.699663 -0.144717 0.699663
vn 0.699663 -0.144717 0.699663
vn 0.699663 -0.144717 -0.699663
vn 0.699663 -0.144717 -0.699663
vn 0.699663 -0.144717 -0.699663
vn 0.699663 -0.144717 -0.699663
vn -0.699887 0.142532 -0.699887
vn -0.699887 0.142532 -0.699887
vn -0.699887 0.142532 -0.699887
vn -0.699887 0.142532 -0.699887
vn -0.699887 0.142532 0.699887
vn -0.699887 0.142532 0.699887
vn -0.699887 0.142532 0.699887
vn -0.699887 0.142532 0.699887
vn 0.699887 0.142532 0.699887
vn 0.699887 0.142532 0.699887
vn 0.699887 0.142532 0.699887
vn 0.699887 0.142532 0.699887
vn 0.699887 0.142532 -0.699887
vn 0.699887 0.142532 -0.699887
vn 0.699887 0.142532 -0.699887
vn 0.699887 0.142532 -0.699887
vn -0.707107 0.000000 -0.707107
vn -0.707107 0.000000 -0.707107
vn -0.707107 0.000000 -0.707107
vn -0.707107 0.000000 -0.707107
vn -0.707107 0.000000 0.707107
vn -0.707107 0.000000 0.707107
vn -0.707107 0.000000 0.707107
vn -0.707107 0.000000 0.707107
vn 0.707107 0.000000 0.707107
vn 0.707107 0.000000 0.707107
vn 0.707107 0.000000 0.707107
vn 0.707107 0.000000 0.707107
vn 0.707107 0.000000 -0.707107
vn 0.707107 0.000000 -0.707107
vn 0.707107 0.000000 -0.707107
vn 0.707107 0.000000 -0.707107
vn -0.475363 0.058750 -0.877826
vn -0.475363 0.058750 -0.877826
vn -0.475363 0.058750 -0.877826
vn -0.475363 0.058750 -0.877826
vn -0.475363 0.058750 0.877826
vn -0.475363 0.058750 0.877826
vn -0.475363 0.058750 0.877826
vn -0.475363 0.058750 0.877826
vn 0.475363 0.058750 0.877826
vn 0.475363 0.058750 0.877826
vn 0.475363 0.058750 0.877826
vn 0.475363 0.058750 0.877826
vn 0.475363 0.058750 -0.877826
vn 0.475363 0.058750 -0.877826
vn 0.475363 0.058750 -0.877826
vn 0.475363 0.058750 -0.877826
vn 0.000000 -1.000000 0.000001
vn 0.000000 -1.000000 0.000001
vn 0.000000 -1.000000 0.000001
vn 0.000000 -1.000000 0.000001
vn 0.000000 1.000000 0.000000
vn 0.000000 1.000000 0.000000
vn 0.000000 1.000000 0.000000
vn 0.000000 1.000000 0.000000
vn 0.000000 -1.000000 -0.000001
vn 0.000000 -1.000000 -0.000001
vn 0.000000 -1.000000 -0.000001
vn 0.000000 -1.000000 -0.000001
vn 0.000000 1.000000 -0.000069
vn 0.000000 1.000000 -0.000069
vn 0.000000 1.000000 -0.000069
vn 0.000000 1.000000 -0.000069
vn 0.000000 -1.000000 -0.000000
vn 0.000000 -1.000000 -0.000000
vn 0.000000 -1.000000 -0.000000
vn 0.000000 -1.000000 -0.000000
vn 0.000000 1.000000 0.000000
vn 0.000000 1.000000 0.000000
vn 0.000000 1.000000 0.000000
vn 0.000000 1.000000 0.000000
vn 0.000000 -1.000000 0.000001
vn 0.000000 -1.000000 0.000001
vn 0.000000 -1.000000 0.000001
vn 0.000000 -1.000000 0.000001
vn 0.000000 1.000000 -0.000000
vn 0.000000 1.000000 -0.000000
vn 0.000000 1.000000 -0.000000
vn 0.000000 1.000000 -0.000000
vn 0.000000 1.000000 0.000000
vn 0.000000 1.000000 0.000000
vn 0.000000 1.000000 0.000000
vn 0.000000 1.000000 0.000000
s off
g pCylinder1
usemtl initialShadingGroup
f 1/50/1 2/51/2 6/52/3 5/53/4
f 2/51/5 3/54/6 7/55/7 6/52/8
f 3/58/9 4/59/10 8/60/11 7/61/12
f 4/56/13 1/50/14 5/53/15 8/57/16
s 1
f 2/1/17 1/2/18 9/3/19
f 3/5/20 2/1/17 9/3/19
f 4/4/21 3/5/20 9/3/19
f 1/2/18 4/4/21 9/3/19
s off
f 14/62/22 15/63/23 16/64/24 17/65/25
f 15/63/26 18/66/27 19/67/28 16/64/29
f 18/70/30 20/71/31 21/72/32 19/73/33
f 20/68/34 14/62/35 17/65/36 21/69/37
f 5/6/38 6/7/39 15/8/40 14/9/41
f 11/14/42 10/15/43 17/16/44 16/17/45
f 6/7/46 7/10/47 18/11/48 15/8/49
f 12/20/50 11/14/51 16/17/52 19/21/53
f 7/10/54 8/12/55 20/13/56 18/11/57
f 13/18/58 12/20/59 19/21/60 21/19/61
f 8/12/62 5/6/63 14/9/64 20/13/65
f 10/15/66 13/18/67 21/19/68 17/16/69
f 10/74/70 11/75/71 23/76/72 22/77/73
f 11/75/74 12/78/75 24/79/76 23/76/77
f 12/94/78 13/95/79 25/96/80 24/97/81
f 13/82/82 10/74/83 22/77/84 25/83/85
f 22/77/86 23/76/87 27/80/88 26/81/89
f 23/76/90 24/79/91 28/84/92 27/80/93
f 24/97/94 25/96/95 29/98/96 28/99/97
f 25/83/98 22/77/99 26/81/100 29/87/101
f 26/81/102 27/80/103 31/85/104 30/86/105
f 27/80/106 28/84/107 32/88/108 31/85/109
f 28/99/110 29/98/111 33/100/112 32/101/113
f 29/87/114 26/81/115 30/86/116 33/91/117
f 30/86/118 31/85/119 35/89/120 34/90/121
f 31/85/122 32/88/123 36/92/124 35/89/125
f 32/101/126 33/100/127 37/102/128 36/103/129
f 33/91/130 30/86/131 34/90/132 37/93/133
f 42/38/134 43/39/135 44/40/136 45/41/137
f 43/44/138 46/45/139 47/46/140 44/47/141
f 46/45/142 48/48/143 49/49/144 47/46/145
f 48/42/146 42/38/147 45/41/148 49/43/149
f 34/22/150 35/23/151 43/24/152 42/25/153
f 39/30/154 38/31/155 45/32/156 44/33/157
f 35/23/158 36/26/159 46/27/160 43/24/161
f 40/34/162 39/30/163 44/33/164 47/37/165
f 36/26/166 37/28/167 48/29/168 46/27/169
f 41/35/170 40/34/171 47/37/172 49/36/173
f 37/28/174 34/22/175 42/25/176 48/29/177
f 38/31/178 41/35/179 49/36/180 45/32/181
f 39/30/182 40/34/183 41/35/184 38/31/185
